<svg width="16" height="24" viewBox="0 0 16 24" fill="none" xmlns="http://www.w3.org/2000/svg">
<g clip-path="url(#clip0_84_192)">
<path d="M7.63568 0.508848C8.04142 0.482208 8.44741 0.484608 8.8444 0.536928C10.8165 0.796848 12.4722 1.67045 13.7565 3.22253C14.8845 4.58549 15.4598 6.16973 15.5197 7.94237C15.5519 8.89397 15.2734 9.79157 14.9617 10.6716C14.4257 12.186 13.7305 13.6284 12.9817 15.0464C11.5314 17.7934 9.90816 20.4334 8.20439 23.0242C8.00637 23.3252 7.99192 23.3247 7.79248 23.0228C6.55723 21.1524 5.37196 19.2504 4.25845 17.3024C3.0502 15.1884 1.89596 13.0474 1.06456 10.7465C0.630154 9.54461 0.334783 8.32445 0.555067 7.01957C0.868914 5.16053 1.67852 3.59405 3.09118 2.35373C4.39797 1.20653 5.9158 0.602688 7.6352 0.508608L7.63568 0.508848ZM6.69579 22.2543C7.03688 22.7763 7.38412 23.294 7.73516 23.8092C7.90807 24.0632 8.09093 24.0634 8.26218 23.8107C8.59664 23.3172 8.93678 22.8267 9.24849 22.3184L10.5716 20.2476C11.4186 18.8686 12.2465 17.4776 13.0085 16.0486C14.103 13.9956 15.1876 11.9338 15.7684 9.65501C16.3417 7.40645 15.8201 5.35253 14.5538 3.48077C13.3337 1.67813 11.634 0.559008 9.51212 0.155568C7.48858 -0.229392 5.565 0.0929281 3.80888 1.20773C1.80785 2.47781 0.58657 4.30445 0.123972 6.65429C-0.115261 7.86941 0.00506592 9.05333 0.37576 10.2224C0.740769 11.3739 1.20337 12.4836 1.72234 13.5723C2.82234 15.8796 4.09975 18.085 5.43307 20.2587" fill="white"/>
<path d="M1.92075 8.24352C1.86485 11.6338 4.69421 14.4295 8.01126 14.4199C11.3307 14.4103 14.1039 11.6194 14.0873 8.21736C14.071 4.89744 11.3631 2.05776 7.94589 2.08464C4.61794 2.1108 1.87622 4.90608 1.92075 8.24328V8.24352ZM8.0089 13.9147C4.991 13.9966 2.42196 11.3645 2.39472 8.30928C2.36677 5.19864 4.91804 2.59824 7.94897 2.57328C11.0633 2.5476 13.5958 5.18784 13.6041 8.23488C13.6127 11.3522 11.0076 13.9896 8.0089 13.9147Z" fill="white"/>
<path d="M6.52174 11.4516C6.40852 11.4377 6.32301 11.3729 6.24603 11.2949C5.63136 10.6726 5.01457 10.0526 4.4044 9.426C4.1853 9.20088 4.18933 9.04632 4.40535 8.8164C4.59674 8.61288 4.79452 8.41488 4.99562 8.2212C5.1574 8.06544 5.31894 8.05392 5.48545 8.2308C5.72658 8.48664 5.99045 8.7216 6.22092 8.9868C6.39691 9.18936 6.50919 9.19968 6.7072 8.99592C7.90077 7.76688 9.10878 6.55224 10.3125 5.33328C10.6813 4.9596 10.7486 4.95696 11.1122 5.33328C11.2998 5.52744 11.4739 5.7348 11.6558 5.93472C11.788 6.07992 11.7906 6.22368 11.6563 6.36768C11.5947 6.43368 11.531 6.49752 11.4675 6.5616C9.92857 8.12112 8.38966 9.68064 6.84956 11.239C6.75671 11.333 6.6776 11.4547 6.5215 11.4516H6.52174ZM6.55585 10.8106C6.60606 10.7642 6.67357 10.7069 6.73563 10.644C7.6414 9.72744 8.54646 8.81016 9.45152 7.89288C9.96434 7.37328 10.4779 6.85464 10.9885 6.33336C11.0544 6.26616 11.1747 6.20112 11.1209 6.09048C11.0418 5.92704 10.9087 5.7852 10.7514 5.70864C10.6119 5.64072 10.5425 5.81496 10.4603 5.89776C9.2355 7.13232 8.01541 8.37168 6.79271 9.6084C6.53548 9.86856 6.45044 9.8676 6.19415 9.61152C5.93905 9.35688 5.6785 9.10704 5.43713 8.83944C5.25735 8.64 5.15408 8.76576 5.02428 8.89272C4.88761 9.02664 4.79854 9.13224 4.98377 9.312C5.44898 9.76368 5.89784 10.2326 6.35427 10.6939C6.40378 10.7438 6.44642 10.8077 6.55585 10.8103V10.8106Z" fill="white"/>
</g>
<defs>
<clipPath id="clip0_84_192">
<rect width="16" height="24" fill="white" transform="matrix(-1 0 0 1 16 0)"/>
</clipPath>
</defs>
</svg>
