<svg width="19" height="19" viewBox="0 0 19 19" fill="none" xmlns="http://www.w3.org/2000/svg">
<g clip-path="url(#clip0_85_284)">
<path d="M17.4802 10.8651C17.566 10.7242 17.6473 10.5876 17.7316 10.4532C17.8073 10.3321 17.9158 10.2924 18.0379 10.3713C18.1539 10.4461 18.1533 10.5558 18.0844 10.6689C18.0031 10.8028 17.9235 10.9378 17.8225 11.1068C17.9548 11.0759 18.0437 11.054 18.1329 11.0343C18.2665 11.0047 18.3604 11.0588 18.3958 11.186C18.4304 11.3105 18.3612 11.3956 18.2456 11.4284C18.0406 11.4867 17.8329 11.5373 17.6248 11.5838C17.4343 11.6263 17.407 11.8026 17.3335 11.9353C17.2987 11.9982 17.3951 12.026 17.4385 12.059C18.2208 12.6532 18.7088 13.4292 18.9182 14.3881C19.3607 16.4144 17.946 18.5413 15.9017 18.9212C15.3613 19.0215 14.8261 19.025 14.2914 18.899C14.2219 18.8827 14.1629 18.8921 14.0968 18.9105C13.897 18.9661 13.6937 18.9999 13.4845 18.9999C9.67006 18.9987 5.85563 19.0001 2.04121 18.9983C1.02684 18.998 0.227457 18.343 0.0353516 17.3553C0.00631462 17.2064 0.00977599 17.0498 0.00977599 16.8969C0.0086222 11.9645 0.0211216 7.03202 -0.000223507 2.09977C-0.00522325 0.927174 0.898962 -0.00549827 2.10948 -0.000319957C5.89717 0.0161739 9.68486 0.00485836 13.4726 0.00639267C14.4592 0.00677625 15.244 0.622612 15.4661 1.56756C15.5119 1.76242 15.5219 1.96284 15.5217 2.16364C15.5205 5.12046 15.5225 8.07708 15.5176 11.0337C15.5173 11.2293 15.5317 11.3419 15.7769 11.3622C16.1088 11.3895 16.4259 11.5082 16.7332 11.6428C16.8058 11.6747 16.8978 11.7802 16.9597 11.7057C17.0468 11.6008 17.1704 11.4919 17.1326 11.3235C17.0858 11.1158 17.042 10.9073 16.988 10.7015C16.9516 10.5632 16.9793 10.4568 17.122 10.4169C17.2647 10.377 17.3439 10.4528 17.3862 10.5901C17.4129 10.6772 17.4054 10.7761 17.4804 10.8651H17.4802ZM13.3233 18.5885C13.3206 18.5323 13.2831 18.5292 13.2558 18.5133C12.2765 17.9448 11.6405 17.1182 11.379 16.0147C11.3467 15.8787 11.2846 15.8403 11.1461 15.8413C10.2091 15.848 9.272 15.8447 8.33493 15.8447C7.75265 15.8447 7.17037 15.8436 6.5879 15.8449C6.44714 15.8453 6.34272 15.7907 6.34157 15.6441C6.34042 15.4989 6.44637 15.4383 6.5831 15.4316C6.64329 15.4286 6.70348 15.4301 6.76386 15.4301C8.10917 15.4301 9.45449 15.4309 10.8 15.4288C10.946 15.4286 11.124 15.4872 11.2296 15.4015C11.333 15.3173 11.2544 15.1384 11.2657 15.0016C11.3031 14.5559 11.3004 14.5557 10.8575 14.5557C10.2819 14.5557 9.70621 14.5546 9.13066 14.5563C9.01624 14.5567 8.93413 14.5139 8.90029 14.4038C8.87394 14.3179 8.9099 14.2475 8.97778 14.1923C9.04624 14.1367 9.12816 14.1447 9.20816 14.1447C9.87082 14.1447 10.5335 14.1386 11.1959 14.1489C11.3569 14.1514 11.4146 14.1014 11.4686 13.9506C11.9872 12.5055 13.0141 11.643 14.5198 11.3442C14.7061 11.3072 14.9644 11.3749 15.0675 11.251C15.1809 11.1148 15.1007 10.8663 15.1007 10.667C15.1027 7.82315 15.1032 4.9793 15.1013 2.13564C15.1006 1.06526 14.4454 0.416438 13.3737 0.416438C9.61217 0.416247 5.85044 0.420082 2.0889 0.413945C1.02607 0.412219 0.412448 1.24037 0.41514 2.07005C0.431293 7.0232 0.423024 11.9765 0.424178 16.9299C0.424178 17.0561 0.423601 17.1854 0.449177 17.3079C0.614745 18.0983 1.24087 18.5879 2.08429 18.5881C5.77891 18.5891 9.47372 18.5885 13.1683 18.5885C13.2197 18.5885 13.2708 18.5885 13.3231 18.5885H13.3233ZM11.7086 15.1741C11.7192 15.3238 11.7155 15.5083 11.7455 15.695C12.0438 17.5484 13.8285 18.862 15.6717 18.5379C17.0633 18.2931 18.0214 17.4799 18.4248 16.1276C18.8248 14.7868 18.4788 13.5989 17.4641 12.6213C17.1112 12.2815 17.1108 12.2924 16.8493 12.7053C16.7643 12.8396 16.7741 12.9061 16.898 13.0105C17.6973 13.6833 18.0406 14.5525 17.8823 15.5772C17.6506 17.0766 16.2959 18.0937 14.8058 17.9026C13.2318 17.7011 12.1888 16.3365 12.3805 14.8014C12.5959 13.0765 14.3331 11.9742 15.9938 12.5055C16.1301 12.5492 16.2784 12.6929 16.3938 12.6259C16.5111 12.5579 16.5553 12.3732 16.6476 12.2516C16.7439 12.1246 16.692 12.0792 16.5705 12.0253C15.943 11.7466 15.289 11.6486 14.6133 11.7591C12.8178 12.0527 11.6728 13.5945 11.7084 15.1742L11.7086 15.1741ZM17.4975 15.1583C17.5008 14.4541 17.1903 13.7857 16.6659 13.3459C16.5622 13.259 16.5064 13.2583 16.4416 13.3833C16.3653 13.531 16.283 13.6787 16.1818 13.8101C16.0693 13.9564 16.0997 14.0483 16.2216 14.1771C16.6553 14.6355 16.7245 15.315 16.4143 15.8633C16.1009 16.4172 15.4594 16.7134 14.8467 16.5868C14.0962 16.4318 13.5683 15.6967 13.6777 14.9585C13.7931 14.1802 14.471 13.5883 15.2446 13.717C15.6996 13.7928 15.8749 13.6213 16.0251 13.2794C16.0438 13.237 16.0672 13.1946 16.097 13.1597C16.1886 13.0527 16.1395 13.0011 16.0297 12.9604C15.6153 12.8068 15.1952 12.755 14.7527 12.8218C13.7262 12.9763 12.7412 13.8866 12.7686 15.2022C12.7937 16.4192 13.7493 17.4107 14.9371 17.5062C16.3141 17.6169 17.4912 16.5375 17.4975 15.1583ZM15.1415 14.1067C14.6283 14.1083 14.2289 14.4291 14.1112 14.9274C14.0027 15.3864 14.2291 15.8633 14.6598 16.0837C15.0888 16.3031 15.6224 16.1973 15.9363 15.8306C16.2505 15.4633 16.2722 14.9253 15.9886 14.5341C15.8646 14.363 15.8526 14.3634 15.7396 14.5498C15.608 14.7665 15.4775 14.9838 15.3465 15.2009C15.274 15.321 15.1809 15.4078 15.0365 15.3215C14.8969 15.2383 14.9109 15.1194 14.9886 14.9942C15.1046 14.8072 15.2192 14.619 15.3288 14.4282C15.3777 14.3432 15.4965 14.2446 15.4523 14.172C15.3946 14.0768 15.2448 14.1142 15.1417 14.1066L15.1415 14.1067Z" fill="white"/>
<path d="M7.77241 1.56193C8.97658 1.56193 10.1808 1.57497 11.3845 1.5556C11.8776 1.54774 12.1947 1.85038 12.1785 2.33964C12.1683 2.64612 12.1801 2.95337 12.1758 3.26023C12.1687 3.77 11.9135 4.02106 11.4068 4.02106C8.97197 4.02125 6.5369 4.02144 4.10202 4.02106C3.60358 4.02106 3.34879 3.76713 3.34802 3.27231C3.34764 2.94531 3.34744 2.6185 3.34802 2.2915C3.34898 1.82162 3.60397 1.56366 4.07991 1.5627C5.31081 1.56021 6.54151 1.56193 7.77241 1.56174V1.56193ZM7.77299 1.97447C6.55594 1.97447 5.33888 1.97409 4.12183 1.97466C3.8278 1.97466 3.76069 2.04371 3.76011 2.34117C3.75954 2.65456 3.75877 2.96813 3.7605 3.28152C3.76185 3.52202 3.84569 3.60928 4.08221 3.60948C6.53632 3.61044 8.99062 3.61044 11.4447 3.60948C11.668 3.60948 11.7482 3.53142 11.7511 3.31124C11.7553 2.99115 11.7532 2.67105 11.7524 2.35095C11.7514 2.02108 11.7036 1.97466 11.3642 1.97466C10.1671 1.97447 8.97024 1.97466 7.77318 1.97466L7.77299 1.97447Z" fill="white"/>
<path d="M3.363 9.49377C3.71741 9.49377 4.07162 9.48955 4.42602 9.49492C4.85965 9.50144 5.16541 9.81137 5.16714 10.245C5.16983 10.9318 5.16887 11.6186 5.16752 12.3054C5.16675 12.7651 4.88196 13.0831 4.41737 13.094C3.71587 13.1105 3.01321 13.1103 2.31171 13.0944C1.85385 13.0841 1.55636 12.7661 1.55098 12.3069C1.5429 11.6268 1.54213 10.9466 1.55136 10.2667C1.55771 9.79871 1.87365 9.49799 2.34017 9.49377C2.68111 9.4907 3.02206 9.49319 3.363 9.49319V9.49377ZM4.75581 11.2964C4.75581 10.9562 4.75831 10.6157 4.75504 10.2755C4.75274 10.0294 4.63121 9.90727 4.38487 9.9065C3.7026 9.904 3.02013 9.904 2.33786 9.9065C2.10979 9.90727 1.9773 10.0156 1.97422 10.2429C1.96461 10.9431 1.96499 11.6439 1.97538 12.3441C1.97865 12.5626 2.10576 12.6706 2.32478 12.6721C3.01379 12.6767 3.70279 12.6769 4.39179 12.6725C4.64063 12.6709 4.75312 12.549 4.75504 12.2972C4.75774 11.9636 4.75562 11.6299 4.75562 11.2964H4.75581Z" fill="white"/>
<path d="M5.16771 15.6456C5.16771 15.9856 5.16886 16.3257 5.16732 16.6659C5.16521 17.1253 4.8658 17.4371 4.40948 17.4408C3.71413 17.4463 3.01878 17.4461 2.32343 17.4408C1.87826 17.4375 1.56154 17.1396 1.55289 16.6912C1.53924 15.9914 1.53866 15.2908 1.55327 14.591C1.5625 14.1477 1.87518 13.8457 2.32766 13.8372C3.01608 13.8244 3.70509 13.8244 4.39351 13.8366C4.87484 13.8453 5.16617 14.1638 5.16732 14.6452C5.16809 14.9786 5.16732 15.3121 5.16732 15.6454L5.16771 15.6456ZM3.36799 17.0307C3.69586 17.0307 4.02353 17.032 4.3514 17.0303C4.63619 17.0288 4.75465 16.9126 4.75542 16.632C4.75696 15.9715 4.75696 15.3109 4.75542 14.6502C4.75465 14.3846 4.646 14.2617 4.38505 14.2593C3.70278 14.2532 3.02031 14.2536 2.33804 14.2595C2.09748 14.2617 1.97498 14.3765 1.97191 14.617C1.96325 15.2975 1.96306 15.9782 1.97075 16.6586C1.97364 16.9197 2.10094 17.0282 2.36477 17.0301C2.69918 17.0326 3.03378 17.0307 3.36837 17.0307H3.36799Z" fill="white"/>
<path d="M5.16779 6.93875C5.16779 7.2855 5.16971 7.63245 5.1674 7.9792C5.16452 8.40824 4.85761 8.73658 4.4309 8.74195C3.72209 8.75116 3.01309 8.75039 2.30428 8.74253C1.88257 8.73792 1.56143 8.42185 1.55316 7.98668C1.53989 7.28665 1.53912 6.58585 1.55355 5.88582C1.56278 5.43358 1.89353 5.13439 2.34697 5.13286C3.02232 5.13056 3.69786 5.13075 4.37321 5.13286C4.85203 5.1342 5.16548 5.44567 5.16759 5.91823C5.16894 6.25847 5.16779 6.59851 5.16779 6.93875ZM4.75588 6.93875C4.75588 6.60561 4.75761 6.27228 4.75531 5.93914C4.75358 5.67581 4.62589 5.5454 4.36302 5.54425C3.70151 5.54175 3.04001 5.54214 2.3787 5.54405C2.1089 5.54482 1.97372 5.662 1.97064 5.92667C1.96295 6.59966 1.96314 7.27284 1.97045 7.94564C1.97333 8.20858 2.11006 8.3319 2.37639 8.33325C3.03789 8.33632 3.6994 8.33689 4.36071 8.33306C4.62512 8.33152 4.75358 8.19861 4.7555 7.93816C4.758 7.60502 4.75608 7.27169 4.75608 6.93855L4.75588 6.93875Z" fill="white"/>
<path d="M9.16674 11.087C9.98247 11.087 10.7982 11.087 11.6139 11.0873C11.6806 11.0873 11.748 11.0879 11.8139 11.0962C11.9229 11.11 11.981 11.1838 11.986 11.286C11.9906 11.3808 11.937 11.455 11.8429 11.4797C11.7733 11.4982 11.6985 11.5031 11.626 11.5031C9.98112 11.5043 8.33639 11.5041 6.69148 11.5039C6.64475 11.5039 6.59725 11.5064 6.55129 11.5001C6.42303 11.4826 6.33342 11.4136 6.3413 11.2788C6.34842 11.1554 6.43418 11.0906 6.55898 11.0895C6.83301 11.0872 7.10723 11.0872 7.38144 11.087C7.9766 11.0866 8.57157 11.087 9.16674 11.087Z" fill="white"/>
<path d="M9.15874 7.14454C8.33628 7.14454 7.51382 7.14454 6.69137 7.14435C6.63118 7.14435 6.56945 7.14952 6.51137 7.13783C6.3983 7.11519 6.33408 7.03637 6.34138 6.92436C6.34811 6.82367 6.41042 6.75156 6.51849 6.73718C6.56464 6.73104 6.61195 6.73334 6.65867 6.73334C8.33032 6.73334 10.002 6.73334 11.6738 6.73334C11.7205 6.73334 11.7688 6.72912 11.8138 6.73833C11.9167 6.75962 11.9815 6.82809 11.9859 6.93165C11.9903 7.03714 11.9242 7.10771 11.8255 7.13476C11.769 7.1501 11.7061 7.14415 11.6461 7.14415C10.8169 7.14454 9.98774 7.14454 9.15874 7.14454Z" fill="white"/>
<path d="M11.4128 10.2105C10.7038 10.2105 9.99477 10.2109 9.28577 10.2099C9.2125 10.2099 9.13828 10.2086 9.06597 10.1972C8.96059 10.1809 8.8981 10.1138 8.89444 10.007C8.89079 9.89959 8.95156 9.82978 9.05386 9.80581C9.11789 9.79085 9.18597 9.78797 9.25231 9.78778C10.7038 9.78682 12.155 9.78701 13.6065 9.7872C13.6532 9.7872 13.7009 9.78433 13.7467 9.792C13.8713 9.81271 13.965 9.8737 13.9571 10.0135C13.95 10.1416 13.8596 10.2005 13.7402 10.2049C13.5531 10.2116 13.3658 10.2101 13.1785 10.2101C12.5898 10.2107 12.0012 10.2101 11.4128 10.2101V10.2105Z" fill="white"/>
<path d="M11.4269 5.44739C12.1691 5.44739 12.9116 5.44835 13.6539 5.44663C13.804 5.44624 13.9577 5.45583 13.9548 5.64935C13.9521 5.83289 13.806 5.86051 13.6527 5.86032C12.168 5.85936 10.6834 5.85974 9.1987 5.85974C9.18524 5.85974 9.17197 5.85974 9.15851 5.85955C9.01525 5.85744 8.89852 5.80662 8.89698 5.64801C8.89564 5.48307 9.01602 5.44663 9.15985 5.44682C9.91559 5.44855 10.6713 5.44759 11.427 5.44739H11.4269Z" fill="white"/>
<path d="M7.8177 17.1456C7.43733 17.1456 7.05677 17.1467 6.67641 17.1446C6.61045 17.1442 6.54276 17.1379 6.4793 17.1216C6.38238 17.0965 6.33758 17.0188 6.34046 16.926C6.34296 16.8424 6.38642 16.7689 6.47546 16.7476C6.54584 16.7307 6.61987 16.7221 6.69237 16.7219C7.44656 16.7202 8.20075 16.7208 8.95495 16.7208C8.97495 16.7208 8.99494 16.7204 9.01494 16.7214C9.15744 16.7277 9.29666 16.7557 9.2982 16.9317C9.29954 17.1074 9.16378 17.1433 9.01917 17.1446C8.77226 17.1471 8.52535 17.1456 8.27825 17.1458C8.1248 17.1458 7.97115 17.1458 7.8177 17.1458V17.1456Z" fill="white"/>
<path d="M7.82219 12.3802C8.22255 12.3802 8.62311 12.3823 9.02347 12.379C9.17423 12.3777 9.30269 12.4101 9.2975 12.5875C9.29269 12.7456 9.17347 12.791 9.0304 12.7908C8.22294 12.7902 7.41548 12.7901 6.60783 12.7908C6.46283 12.7908 6.34457 12.7404 6.34303 12.585C6.34149 12.4132 6.46822 12.3767 6.6209 12.3785C7.02127 12.3833 7.42163 12.38 7.82219 12.38V12.3802Z" fill="white"/>
<path d="M7.83295 8.42761C7.42585 8.42761 7.01876 8.42454 6.61166 8.42934C6.46532 8.43106 6.34571 8.39002 6.34283 8.23294C6.33975 8.06532 6.46417 8.01641 6.61743 8.01661C7.41816 8.01814 8.21908 8.01776 9.01981 8.0168C9.16961 8.0168 9.29806 8.05784 9.29749 8.2293C9.29691 8.40709 9.16153 8.4301 9.01404 8.42876C8.62041 8.4255 8.22658 8.42761 7.83275 8.42761H7.83295Z" fill="white"/>
<path d="M7.30072 10.2095C7.07342 10.2095 6.84613 10.2101 6.61883 10.2095C6.47095 10.2091 6.33846 10.1677 6.34211 9.99434C6.34538 9.8365 6.47019 9.78874 6.61076 9.78836C7.07862 9.78701 7.54648 9.78701 8.01453 9.78836C8.15587 9.78874 8.27875 9.83976 8.28221 9.99606C8.28586 10.1543 8.16568 10.2076 8.02261 10.2086C7.78204 10.2101 7.54129 10.209 7.30072 10.209C7.30072 10.2091 7.30072 10.2093 7.30072 10.2095Z" fill="white"/>
<path d="M7.2912 14.5559C7.05736 14.5559 6.82334 14.5528 6.5895 14.557C6.44643 14.5595 6.34567 14.5012 6.34259 14.3577C6.33971 14.2149 6.43855 14.1458 6.58027 14.1458C7.06813 14.1452 7.55618 14.145 8.04404 14.1458C8.18557 14.146 8.28557 14.2173 8.28192 14.3585C8.27826 14.4999 8.17615 14.5595 8.03308 14.557C7.78579 14.5528 7.53849 14.5559 7.2912 14.5559Z" fill="white"/>
<path d="M7.31222 5.44758C7.55278 5.44758 7.79335 5.45008 8.03391 5.44663C8.17544 5.44452 8.27967 5.50109 8.28217 5.64494C8.28467 5.78724 8.18121 5.85744 8.04276 5.85801C7.5549 5.86032 7.06723 5.86032 6.57937 5.85801C6.44072 5.85725 6.33842 5.78724 6.34188 5.64398C6.34534 5.49918 6.44899 5.44432 6.59072 5.44663C6.83128 5.45046 7.07185 5.44778 7.31241 5.44758H7.31222Z" fill="white"/>
<path d="M10.6031 16.7217C10.7831 16.7217 10.9633 16.7175 11.1433 16.7231C11.2815 16.7275 11.4 16.7729 11.3957 16.9404C11.3919 17.095 11.2802 17.1416 11.1492 17.1429C10.7758 17.1465 10.4023 17.1465 10.0289 17.1429C9.89582 17.1416 9.78506 17.084 9.78275 16.9365C9.78044 16.7885 9.89024 16.7288 10.0229 16.7244C10.216 16.7179 10.4096 16.7227 10.6031 16.7227C10.6031 16.7225 10.6031 16.7221 10.6031 16.7219V16.7217Z" fill="white"/>
<path d="M13.1367 11.5033C12.9501 11.5033 12.7634 11.5053 12.5769 11.5028C12.4323 11.5008 12.3188 11.4377 12.3221 11.2841C12.3252 11.1399 12.4355 11.087 12.5734 11.0873C12.9532 11.0885 13.3332 11.0873 13.713 11.0881C13.8489 11.0885 13.9566 11.1387 13.9566 11.2899C13.9566 11.4379 13.8497 11.4974 13.7163 11.5014C13.5232 11.5072 13.3297 11.503 13.1365 11.5033H13.1367Z" fill="white"/>
<path d="M13.1315 7.14415C12.9448 7.14415 12.7582 7.14243 12.5715 7.14473C12.4306 7.14646 12.326 7.08508 12.3231 6.9445C12.3198 6.79126 12.4277 6.73104 12.5779 6.73219C12.9511 6.73526 13.3246 6.73449 13.6978 6.73257C13.8441 6.73181 13.958 6.78186 13.9553 6.94067C13.9526 7.09832 13.8361 7.14665 13.6915 7.14492C13.5049 7.14262 13.3182 7.14435 13.1315 7.14415Z" fill="white"/>
<path d="M10.6105 12.3804C10.7972 12.3804 10.9839 12.3813 11.1706 12.38C11.3045 12.379 11.3918 12.4345 11.396 12.5749C11.4001 12.7147 11.3124 12.7856 11.1833 12.7874C10.7901 12.7929 10.3964 12.7922 10.0032 12.7876C9.87301 12.786 9.78167 12.7099 9.78398 12.5777C9.78629 12.4456 9.87474 12.3792 10.0105 12.38C10.2105 12.3813 10.4105 12.3804 10.6107 12.3802L10.6105 12.3804Z" fill="white"/>
<path d="M10.578 8.42761C10.3913 8.42761 10.2045 8.42569 10.0178 8.42819C9.8834 8.42991 9.78937 8.36854 9.78418 8.23697C9.77841 8.09447 9.87591 8.02006 10.0157 8.01891C10.4024 8.01584 10.7891 8.01545 11.1758 8.01948C11.3047 8.02082 11.3958 8.08488 11.3956 8.22508C11.3953 8.37813 11.2991 8.42972 11.1581 8.42799C10.9649 8.42569 10.7714 8.42742 10.578 8.42742V8.42761Z" fill="white"/>
<path d="M4.25408 10.8482C4.25581 10.8785 4.20946 10.9351 4.15658 10.9878C3.85429 11.2895 3.55084 11.5904 3.24951 11.8931C3.12702 12.0162 3.00856 12.0193 2.88607 11.8946C2.77377 11.7803 2.658 11.6694 2.54685 11.5542C2.45686 11.4608 2.43128 11.3564 2.53012 11.254C2.62781 11.1526 2.72858 11.1725 2.83145 11.2559C3.09029 11.4661 3.09144 11.465 3.33643 11.2212C3.52104 11.0377 3.7041 10.8526 3.89063 10.671C3.95505 10.6083 4.02986 10.5691 4.12581 10.6111C4.20908 10.6476 4.2485 10.7093 4.25408 10.8482Z" fill="white"/>
<path d="M4.25123 15.1738C4.25354 15.2542 4.21047 15.3117 4.15701 15.365C3.85452 15.6663 3.55262 15.9682 3.24975 16.2691C3.12879 16.3894 3.00726 16.3938 2.88477 16.2687C2.76804 16.1496 2.64651 16.0351 2.53248 15.9135C2.44748 15.823 2.43998 15.7196 2.53017 15.6287C2.61901 15.5392 2.71804 15.5443 2.81688 15.6216C2.90476 15.6903 2.96418 15.8405 3.06764 15.829C3.18648 15.8155 3.25628 15.6723 3.34686 15.585C3.52935 15.4091 3.70684 15.2281 3.88683 15.0495C3.96067 14.9765 4.04836 14.9544 4.14355 14.997C4.21662 15.0296 4.25104 15.0934 4.25123 15.1738Z" fill="white"/>
<path d="M3.0727 7.61462C3.00982 7.60752 2.96059 7.58661 2.92156 7.54826C2.79291 7.42187 2.66426 7.29548 2.53869 7.16621C2.45216 7.07703 2.43735 6.97577 2.52638 6.8816C2.62138 6.78129 2.7256 6.79548 2.82983 6.87661C2.91694 6.9445 2.97463 7.09832 3.08347 7.07396C3.17827 7.05267 3.25135 6.9305 3.33192 6.85072C3.5123 6.67216 3.69171 6.49265 3.87093 6.31294C3.96631 6.21743 4.07496 6.16584 4.18553 6.27362C4.29918 6.38429 4.26591 6.50089 4.16111 6.60523C3.85824 6.90672 3.55556 7.2086 3.25365 7.51143C3.2002 7.56513 3.14135 7.60483 3.07232 7.61462H3.0727Z" fill="white"/>
</g>
<defs>
<clipPath id="clip0_85_284">
<rect width="19" height="19" fill="white"/>
</clipPath>
</defs>
</svg>
