<svg width="19" height="20" viewBox="0 0 19 20" fill="none" xmlns="http://www.w3.org/2000/svg">
<g clip-path="url(#clip0_84_191)">
<path d="M12.7408 0.536979C12.8833 0.610934 12.8985 0.737228 12.8983 0.881726C12.8954 2.36293 12.8998 3.84413 12.8924 5.32533C12.8915 5.50567 12.9409 5.55365 13.1187 5.54928C13.6028 5.53772 13.603 5.54587 13.6999 6.02241C13.7123 6.08271 13.7385 6.14359 13.7358 6.20313C13.7221 6.50142 13.9452 6.56949 14.1576 6.65369C14.2289 6.68195 14.2748 6.64326 14.3261 6.61027C14.5025 6.49668 14.6803 6.38555 14.854 6.26798C14.9826 6.18094 15.0913 6.19308 15.2 6.30306C15.5078 6.61482 15.8176 6.92467 16.1292 7.23301C16.2408 7.34338 16.2429 7.45431 16.1577 7.58022C16.0472 7.74368 15.9415 7.91037 15.8346 8.0763C15.713 8.26498 15.8518 8.60669 16.0683 8.65429C16.2729 8.69923 16.4769 8.74683 16.682 8.7895C16.8188 8.81813 16.8818 8.9027 16.8822 9.03734C16.8832 9.48165 16.8822 9.92614 16.8828 10.3704C16.8828 10.517 16.807 10.598 16.6673 10.6274C16.4623 10.6704 16.2573 10.7135 16.0527 10.7582C15.8617 10.8 15.7168 11.1515 15.823 11.3175C15.9358 11.4942 16.051 11.6694 16.1665 11.8444C16.2465 11.9656 16.2349 12.0733 16.1313 12.1763C15.8205 12.4852 15.5102 12.7947 15.2024 13.1064C15.0943 13.216 14.9841 13.231 14.8559 13.1444C14.7282 13.0581 14.5874 12.9881 14.4702 12.8899C14.3028 12.7495 14.146 12.7332 13.9534 12.8409C13.8548 12.8961 13.7854 12.938 13.7674 13.0621C13.7379 13.2627 13.683 13.4595 13.641 13.6584C13.6108 13.8018 13.5228 13.8627 13.3788 13.8668C13.2262 13.8712 13.0246 13.7984 12.9334 13.8968C12.8288 14.0098 12.9021 14.215 12.8989 14.3798C12.8928 14.6944 12.8945 15.0094 12.8977 15.324C12.8994 15.5015 12.8153 15.5868 12.641 15.5887C12.5732 15.5894 12.5052 15.5898 12.4374 15.5898C9.91928 15.5898 7.40122 15.5898 4.88315 15.5898C4.71506 15.5898 4.63095 15.6716 4.63083 15.8352C4.63083 16.2302 4.63197 16.6252 4.63026 17.0202C4.62931 17.2432 4.56471 17.31 4.3464 17.3101C3.15529 17.3113 1.96418 17.3111 0.772876 17.3101C0.552666 17.3101 0.483886 17.2426 0.483696 17.0248C0.482556 15.8337 0.482746 14.6424 0.483696 13.4514C0.483696 13.2259 0.544306 13.165 0.767556 13.1641C1.23667 13.1624 1.70578 13.1593 2.1747 13.1662C2.30371 13.1681 2.34247 13.129 2.34228 12.9993C2.3419 12.5897 2.34722 12.5897 1.93948 12.5897C1.55682 12.5897 1.17416 12.5918 0.791496 12.5887C0.543736 12.5868 0.483696 12.5254 0.483506 12.2823C0.482746 11.1036 0.482746 9.92462 0.483506 8.74588C0.483506 8.49652 0.547916 8.43432 0.804416 8.43375C1.24883 8.4328 1.69324 8.42635 2.13746 8.43735C2.29687 8.44133 2.34437 8.40341 2.34342 8.23615C2.33582 6.92771 2.3419 5.61926 2.33601 4.311C2.33525 4.14242 2.3875 4.02238 2.50587 3.90481C3.57405 2.84326 4.63729 1.77697 5.70243 0.712387C5.76285 0.651894 5.82707 0.595195 5.88958 0.536789C8.17357 0.536789 10.4576 0.536789 12.7414 0.536789L12.7408 0.536979ZM8.5359 15.1618C9.7766 15.1618 11.0171 15.1584 12.2576 15.1658C12.4313 15.1668 12.482 15.1142 12.4729 14.9468C12.4602 14.713 12.4697 14.4778 12.4697 14.2433C12.4697 13.8735 12.4697 13.8686 12.0923 13.868C11.9215 13.8678 11.8269 13.7974 11.7942 13.6317C11.7549 13.4322 11.7117 13.2335 11.6688 13.0347C11.6295 12.8527 11.2814 12.7002 11.1243 12.7985C10.9413 12.9128 10.7608 13.0315 10.5801 13.1497C10.4585 13.2293 10.3521 13.2168 10.2489 13.1125C9.94057 12.8011 9.63068 12.4913 9.31888 12.1833C9.20887 12.0748 9.19652 11.965 9.28298 11.8369C9.4002 11.663 9.51402 11.4868 9.62612 11.3095C9.72416 11.1544 9.57767 10.7994 9.39983 10.7599C9.1952 10.7146 8.99 10.6727 8.78479 10.63C8.6383 10.5997 8.55964 10.5176 8.5606 10.361C8.56307 9.92273 8.56192 9.48449 8.56116 9.04625C8.56098 8.90195 8.62634 8.81623 8.77093 8.78665C8.97005 8.74607 9.16803 8.69923 9.36658 8.65562C9.59648 8.60517 9.73327 8.26801 9.60427 8.06814C9.50072 7.90753 9.4002 7.74463 9.29152 7.58743C9.19995 7.45507 9.20298 7.34205 9.32135 7.22599C9.63391 6.91898 9.94323 6.60837 10.2518 6.29719C10.3553 6.19251 10.461 6.18265 10.5828 6.26343C10.7574 6.37949 10.9339 6.49288 11.1112 6.60496C11.2799 6.71153 11.6276 6.56722 11.6694 6.37418C11.7097 6.18739 11.7471 6.00023 11.7872 5.81344C11.8343 5.59461 11.8924 5.54739 12.1132 5.54492C12.1687 5.54435 12.2253 5.53791 12.2797 5.54606C12.4391 5.56995 12.4735 5.49846 12.4729 5.34885C12.4678 3.95393 12.4683 2.55901 12.4721 1.16409C12.4725 1.02755 12.4469 0.97237 12.2912 0.972749C10.3099 0.978438 8.32879 0.978248 6.34748 0.973128C6.20307 0.972749 6.1761 1.01883 6.17686 1.15138C6.18218 2.10806 6.1799 3.06475 6.17971 4.02143C6.17971 4.32295 6.12347 4.38021 5.82783 4.38021C4.86491 4.3804 3.90218 4.38249 2.93926 4.37775C2.81348 4.37718 2.77073 4.40733 2.77111 4.54045C2.77605 5.78727 2.77567 7.03409 2.77149 8.28072C2.77111 8.40303 2.80835 8.43735 2.92824 8.43583C3.39108 8.42977 3.85411 8.43261 4.31695 8.43375C4.56908 8.43432 4.63007 8.49652 4.63026 8.75271C4.63083 9.92538 4.63083 11.0982 4.63026 12.2709C4.63026 12.5303 4.57535 12.587 4.31543 12.5889C3.93904 12.5916 3.56246 12.5897 3.18588 12.5897C2.76446 12.5897 2.77092 12.5897 2.77054 13.0059C2.77054 13.1451 2.82526 13.1671 2.94515 13.1658C3.40799 13.1605 3.87102 13.1629 4.33386 13.1641C4.57326 13.1646 4.62931 13.22 4.62988 13.4572C4.63121 13.9571 4.63691 14.4574 4.62646 14.957C4.62304 15.1199 4.66826 15.1658 4.8328 15.1651C6.06723 15.1582 7.30165 15.1613 8.53609 15.1613L8.5359 15.1618ZM14.979 12.7C15.0022 12.6839 15.0244 12.6726 15.0415 12.6557C15.2514 12.4469 15.4599 12.2364 15.6706 12.0286C15.7225 11.9774 15.708 11.9347 15.6731 11.8829C15.5872 11.7549 15.514 11.6175 15.4194 11.4967C15.2818 11.3211 15.2547 11.1536 15.378 10.9556C15.4451 10.8477 15.4825 10.7194 15.5218 10.5967C15.5619 10.4719 15.6351 10.4023 15.7667 10.3784C15.9605 10.3433 16.1511 10.2917 16.3445 10.2538C16.4175 10.2394 16.45 10.2106 16.449 10.1334C16.4462 9.84972 16.4465 9.56584 16.4488 9.28215C16.4494 9.2082 16.4245 9.1716 16.3477 9.15757C16.1843 9.12761 16.0238 9.07849 15.8596 9.05574C15.6679 9.029 15.5463 8.94746 15.4981 8.74797C15.4665 8.61826 15.4023 8.49462 15.3402 8.37458C15.2737 8.24602 15.2746 8.13243 15.3592 8.01182C15.4652 7.8605 15.5587 7.70026 15.6634 7.54799C15.7137 7.47479 15.7147 7.4234 15.6466 7.35798C15.4508 7.17005 15.259 6.97777 15.0711 6.78207C15.0075 6.71589 14.9564 6.70925 14.8819 6.76235C14.7563 6.85147 14.6174 6.92297 14.4975 7.01873C14.332 7.15071 14.1861 7.11677 13.9891 7.06576C13.5071 6.94079 13.3087 6.6408 13.2914 6.17412C13.2859 6.02658 13.2188 5.95851 13.0568 5.97595C12.8983 5.99302 12.7364 5.97974 12.5761 5.97974C12.1928 5.97974 12.1723 5.9769 12.1204 6.35199C12.0737 6.6901 11.9618 6.93908 11.5898 6.9918C11.5664 6.99521 11.5421 7.00754 11.5227 7.02176C11.2907 7.19357 11.083 7.14104 10.8719 6.97151C10.7484 6.87233 10.5991 6.7303 10.4671 6.73618C10.32 6.74263 10.2208 6.94003 10.104 7.05703C9.97818 7.18295 9.77184 7.28706 9.75418 7.44634C9.73651 7.60525 9.90883 7.75715 10.0149 7.89804C10.1572 8.08748 10.1931 8.26251 10.0584 8.47205C9.9932 8.57351 9.95861 8.69696 9.92213 8.81415C9.88318 8.93968 9.80833 9.00985 9.67837 9.0345C9.48476 9.07129 9.29381 9.12135 9.10019 9.15814C9.02553 9.17236 8.99512 9.2027 8.9957 9.27893C8.99817 9.56262 8.99817 9.84649 8.9957 10.1302C8.99494 10.2045 9.02002 10.2398 9.0964 10.2536C9.25391 10.2821 9.40819 10.3319 9.56645 10.3519C9.77394 10.3778 9.9037 10.4681 9.9531 10.6816C9.98027 10.7998 10.0378 10.9132 10.096 11.0211C10.1712 11.161 10.1718 11.2843 10.0755 11.4163C9.9704 11.5606 9.88242 11.7172 9.78096 11.8643C9.73042 11.9375 9.72967 11.9891 9.79731 12.0544C9.99282 12.2425 10.1843 12.4351 10.3724 12.6306C10.4357 12.6964 10.4874 12.7037 10.5622 12.6506C10.6876 12.5612 10.8258 12.4888 10.9466 12.3942C11.1117 12.265 11.2681 12.2432 11.4549 12.3549C11.5748 12.4264 11.7152 12.4645 11.8482 12.5127C11.9553 12.5516 12.0232 12.616 12.0456 12.7334C12.084 12.9329 12.1353 13.1299 12.1736 13.3294C12.1881 13.4043 12.2192 13.4328 12.295 13.432C12.5787 13.4292 12.8626 13.4296 13.1464 13.432C13.22 13.4326 13.2564 13.4098 13.2701 13.3319C13.3 13.1622 13.3473 12.9955 13.3746 12.8254C13.4027 12.6498 13.4774 12.5341 13.6638 12.4899C13.7879 12.4605 13.9097 12.4054 14.0212 12.3418C14.1738 12.2546 14.3064 12.2567 14.4487 12.3625C14.5821 12.4617 14.7259 12.5466 14.8659 12.6367C14.9017 12.6598 14.9402 12.6788 14.9796 12.7008L14.979 12.7ZM2.57408 8.86686C2.08027 8.86686 1.58646 8.87104 1.09284 8.86402C0.961356 8.86212 0.911195 8.88905 0.912145 9.0345C0.918795 10.0158 0.917655 10.9972 0.912905 11.9785C0.912335 12.1099 0.939695 12.1628 1.08486 12.1619C2.06621 12.156 3.04756 12.1569 4.02872 12.1609C4.15393 12.1615 4.20067 12.1285 4.19991 11.9952C4.19497 11.0078 4.19402 10.0202 4.20067 9.03279C4.20162 8.8845 4.14652 8.8625 4.0177 8.86421C3.53643 8.87066 3.05497 8.86686 2.57351 8.86686H2.57408ZM2.54729 16.8765C3.04072 16.8765 3.53434 16.871 4.02758 16.8799C4.17046 16.8825 4.20124 16.8361 4.20048 16.7016C4.19516 15.7209 4.19573 14.7401 4.19991 13.7593C4.20048 13.6345 4.16932 13.5871 4.03632 13.5877C3.04946 13.5924 2.06241 13.5924 1.07555 13.5877C0.941406 13.5871 0.912715 13.6361 0.913285 13.7597C0.917466 14.7405 0.918226 15.7212 0.912716 16.702C0.911956 16.8366 0.942926 16.8823 1.08543 16.8797C1.57259 16.8706 2.05994 16.8763 2.54729 16.8763V16.8765ZM5.74461 1.35087C4.87517 2.21786 4.01276 3.07783 3.14883 3.93951C3.15719 3.94065 3.17942 3.94615 3.20165 3.94634C4.00383 3.94691 4.80582 3.94444 5.608 3.94937C5.73169 3.95013 5.7467 3.89647 5.74613 3.79407C5.7429 3.20792 5.74461 2.62177 5.74461 2.03563C5.74461 1.80333 5.74461 1.57084 5.74461 1.35087Z" fill="white"/>
<path d="M2.48143 19.5C2.36477 19.4281 2.32696 19.3255 2.33 19.1883C2.33798 18.8304 2.33513 18.4724 2.33171 18.1146C2.33038 17.9663 2.37389 17.8555 2.53691 17.8398C2.67238 17.8267 2.76092 17.935 2.76358 18.1157C2.76719 18.381 2.76871 18.6465 2.76282 18.9118C2.76054 19.0191 2.78657 19.0777 2.90532 19.0608C2.93553 19.0565 2.96688 19.0603 2.99785 19.0603C7.9597 19.0603 12.9214 19.0604 17.8832 19.0597C18.1507 19.0597 18.1207 19.0953 18.1207 18.8249C18.1215 13.5299 18.1213 8.23483 18.1213 2.93979C18.1213 2.77354 18.0386 2.69036 17.8731 2.69023C16.6944 2.69023 15.5156 2.69023 14.3369 2.69023H14.0899C14.2588 2.85938 14.3901 2.9908 14.5212 3.12221C14.7095 3.31108 14.7372 3.41386 14.6314 3.5284C14.52 3.649 14.4081 3.62207 14.2134 3.42732C13.9645 3.17872 13.7148 2.93087 13.4676 2.68075C13.3173 2.52867 13.3179 2.4238 13.4688 2.27172C13.7382 1.99998 14.0106 1.73146 14.2797 1.45934C14.3838 1.3541 14.4949 1.30878 14.6205 1.41364C14.7298 1.50466 14.7167 1.63228 14.5835 1.76616C14.4362 1.91426 14.2821 2.05554 14.121 2.20933C14.2092 2.28291 14.2846 2.26053 14.3521 2.26072C15.6296 2.26243 16.907 2.26167 18.1846 2.26205C18.5182 2.26205 18.5545 2.2994 18.5545 2.63543C18.5545 8.13414 18.5543 13.6328 18.556 19.1316C18.556 19.2787 18.5535 19.4162 18.4074 19.5002H2.48143V19.5Z" fill="white"/>
<path d="M9.31778 3.37612C8.59616 3.37612 7.87435 3.3765 7.15273 3.37594C6.87609 3.37575 6.81776 3.31658 6.81738 3.04029C6.817 2.69478 6.81567 2.34947 6.81795 2.00396C6.81928 1.79707 6.8892 1.72558 7.09554 1.72539C8.5821 1.72426 10.0687 1.72426 11.5552 1.72539C11.7517 1.72539 11.8226 1.79499 11.825 1.99315C11.8294 2.34473 11.8277 2.6963 11.8264 3.04788C11.8254 3.31601 11.7669 3.37537 11.5016 3.37575C10.7738 3.37669 10.0459 3.37612 9.31797 3.37612H9.31778ZM9.31436 2.94377C9.95599 2.94377 10.5976 2.94111 11.2391 2.94604C11.358 2.94699 11.4074 2.91343 11.4015 2.79036C11.3941 2.63657 11.3907 2.48126 11.4025 2.32804C11.4137 2.18221 11.3519 2.15301 11.2201 2.15604C10.8625 2.16401 10.5045 2.1587 10.1468 2.1587C9.23988 2.1587 8.33301 2.16135 7.42614 2.15585C7.29219 2.1551 7.23595 2.1843 7.24849 2.32823C7.26122 2.47519 7.26046 2.62481 7.24849 2.77196C7.23709 2.914 7.29086 2.94832 7.42652 2.9468C8.05561 2.94017 8.68489 2.94396 9.31417 2.94377H9.31436Z" fill="white"/>
<path d="M7.72794 5.1247C8.97453 5.1247 10.2209 5.1247 11.4675 5.12508C11.5352 5.12508 11.6049 5.12186 11.6701 5.13589C11.7649 5.15618 11.8154 5.22521 11.8202 5.3223C11.8251 5.42527 11.7858 5.50719 11.6809 5.53411C11.6163 5.5508 11.5467 5.55251 11.4793 5.55251C8.96769 5.55327 6.45627 5.55327 3.94466 5.55289C3.89545 5.55289 3.84567 5.55232 3.79703 5.54587C3.67467 5.52956 3.60399 5.45219 3.60703 5.33424C3.61007 5.21876 3.67733 5.13817 3.8033 5.12887C3.86467 5.12432 3.92661 5.12489 3.98836 5.12489C5.23495 5.1247 6.48135 5.12489 7.72794 5.12489V5.1247Z" fill="white"/>
<path d="M8.37105 13.9099C9.40123 13.9099 10.4314 13.9099 11.4616 13.9099C11.5171 13.9099 11.5731 13.9061 11.628 13.9125C11.7394 13.9256 11.8087 13.9882 11.8197 14.1026C11.8315 14.226 11.7692 14.3047 11.6533 14.3335C11.5948 14.3481 11.5308 14.3434 11.4694 14.3434C9.39667 14.3438 7.32396 14.3438 5.25125 14.3438C5.20812 14.3438 5.16461 14.3462 5.12186 14.3419C4.9881 14.328 4.89519 14.2586 4.89956 14.1191C4.90393 13.9816 4.99399 13.9108 5.13269 13.9105C5.50889 13.9097 5.88528 13.9099 6.26148 13.9099C6.96467 13.9099 7.66786 13.9099 8.37124 13.9099H8.37105Z" fill="white"/>
<path d="M6.29771 7.31133C5.51491 7.31133 4.7323 7.31133 3.9495 7.31114C3.89421 7.31114 3.83702 7.31626 3.78363 7.30488C3.67495 7.28193 3.60883 7.20798 3.60674 7.09761C3.60465 6.98668 3.6702 6.91253 3.77736 6.88523C3.8241 6.87328 3.87521 6.87688 3.92442 6.87669C5.50826 6.87631 7.09229 6.87631 8.67613 6.87669C8.73123 6.87669 8.78956 6.87271 8.84105 6.88826C8.94612 6.91993 9.0054 6.99388 8.99818 7.10918C8.99153 7.21594 8.92788 7.27909 8.82984 7.30298C8.77721 7.31588 8.71964 7.31076 8.66416 7.31076C7.87528 7.31114 7.0864 7.31095 6.29752 7.31095L6.29771 7.31133Z" fill="white"/>
<path d="M7.13051 12.5766C6.53885 12.5766 5.94719 12.5753 5.35534 12.5775C5.20486 12.5781 5.07908 12.5518 5.06882 12.3695C5.06084 12.2279 5.15679 12.1473 5.34527 12.1469C6.52859 12.1448 7.7121 12.1454 8.89542 12.1461C9.04229 12.1461 9.17206 12.1786 9.18251 12.3598C9.19087 12.5068 9.09454 12.5762 8.88706 12.5764C8.30148 12.5774 7.7159 12.5768 7.13051 12.5768V12.5766Z" fill="white"/>
<path d="M6.62883 10.3924C7.14031 10.3924 7.65179 10.3941 8.16327 10.3915C8.31508 10.3907 8.43801 10.4228 8.45074 10.6012C8.46119 10.7482 8.35897 10.8265 8.15928 10.8269C7.13632 10.8278 6.11355 10.8269 5.09059 10.828C4.93859 10.828 4.81661 10.789 4.80084 10.6154C4.78792 10.4728 4.89698 10.3934 5.09458 10.393C5.60606 10.3921 6.11754 10.3926 6.62902 10.3926L6.62883 10.3924Z" fill="white"/>
<path d="M6.73717 9.06313C6.28136 9.06313 5.82536 9.06124 5.36955 9.06408C5.21622 9.06503 5.08607 9.02559 5.08569 8.85132C5.08531 8.67705 5.21698 8.63609 5.36917 8.63628C6.28098 8.63741 7.19279 8.6376 8.1046 8.63609C8.25774 8.6359 8.38827 8.6778 8.38827 8.85075C8.38827 9.0235 8.25983 9.06541 8.10517 9.06427C7.64936 9.06086 7.19336 9.06313 6.73755 9.06313H6.73717Z" fill="white"/>
<path d="M12.7097 11.5297C11.696 11.5162 10.8796 10.678 10.8988 9.67071C10.9178 8.6778 11.7532 7.86827 12.7435 7.88344C13.7478 7.8988 14.5639 8.73659 14.5447 9.73253C14.5253 10.7323 13.6978 11.5429 12.7098 11.5297H12.7097ZM14.1128 9.69896C14.11 8.93684 13.4752 8.30783 12.7159 8.31447C11.9519 8.32111 11.331 8.94878 11.3318 9.71318C11.3327 10.474 11.9643 11.0986 12.7294 11.0952C13.4938 11.0918 14.1155 10.4641 14.1126 9.69896H14.1128Z" fill="white"/>
<path d="M2.33853 10.8677C2.33853 10.5197 2.33853 10.1842 2.33853 9.84877C2.33853 9.78107 2.3391 9.71337 2.33853 9.64548C2.33739 9.49738 2.38964 9.38398 2.55418 9.38266C2.71815 9.38133 2.77401 9.49075 2.77363 9.64093C2.77287 9.98587 2.77363 10.3306 2.77363 10.6756C2.77363 10.7349 2.77363 10.7941 2.77363 10.897C2.86046 10.8174 2.91518 10.7639 2.97351 10.7148C3.07269 10.6316 3.17833 10.6249 3.27086 10.7186C3.36244 10.8113 3.36301 10.9238 3.27542 11.0165C3.09359 11.2088 2.90511 11.3952 2.71454 11.579C2.61555 11.6743 2.50079 11.6768 2.40104 11.581C2.21009 11.3977 2.02237 11.2107 1.8394 11.0194C1.75086 10.9268 1.74763 10.8159 1.83712 10.7213C1.92756 10.6257 2.03225 10.6314 2.13523 10.7097C2.19679 10.7563 2.23479 10.8322 2.33834 10.8678L2.33853 10.8677Z" fill="white"/>
<path d="M2.94183 15.455C2.51053 15.455 2.12825 15.4556 1.74616 15.4544C1.69106 15.4544 1.6333 15.4556 1.58124 15.4406C1.47465 15.4099 1.41062 15.3315 1.42164 15.2208C1.43437 15.0943 1.51455 15.0223 1.64622 15.0219C1.9981 15.0207 2.34979 15.0211 2.70167 15.0209C2.7676 15.0209 2.83353 15.0209 2.92036 15.0209C2.88008 14.9208 2.80693 14.8806 2.76038 14.8203C2.68305 14.7202 2.67032 14.6127 2.76418 14.5201C2.85709 14.4287 2.97242 14.4314 3.064 14.5175C3.25723 14.6991 3.44286 14.8891 3.62716 15.0799C3.72482 15.1812 3.71893 15.2944 3.62355 15.3932C3.44362 15.5798 3.26027 15.763 3.07426 15.9435C2.97603 16.0389 2.86165 16.0516 2.76342 15.9482C2.66747 15.8473 2.68115 15.7364 2.77463 15.6353C2.81928 15.5872 2.86393 15.539 2.94183 15.4548V15.455Z" fill="white"/>
</g>
<defs>
<clipPath id="clip0_84_191">
<rect width="19" height="19" fill="white" transform="translate(0 0.5)"/>
</clipPath>
</defs>
</svg>
