<svg width="16" height="17" viewBox="0 0 16 17" fill="none" xmlns="http://www.w3.org/2000/svg">
<g clip-path="url(#clip0_84_204)">
<path d="M7.18521 16.033C7.14939 16.0174 7.1148 15.9929 7.07752 15.988C6.47471 15.909 6.02468 15.4531 6.0315 14.6192C6.0354 14.1415 5.98058 14.0928 5.55686 13.8966C5.21623 13.7389 4.97354 13.8256 4.72258 14.0824C4.08103 14.7379 3.43778 14.7291 2.78648 14.0819C2.50336 13.8004 2.22071 13.5186 1.93905 13.2356C1.30091 12.5947 1.29872 11.9521 1.93028 11.3115C2.03432 11.206 2.15298 11.1104 2.20317 10.9636C2.33669 10.5719 1.93125 10.0027 1.51752 9.9986C1.43931 9.99787 1.36085 10.0003 1.28264 9.99617C0.54387 9.95678 0.102609 9.57823 0.0404763 8.84788C-0.0104478 8.24955 -0.021656 7.64319 0.0580196 7.04389C0.132578 6.48397 0.575789 6.08889 1.1418 6.05047C1.20418 6.04634 1.26704 6.04537 1.32966 6.04707C1.9025 6.06239 1.98412 6.00744 2.20634 5.35124C2.26603 5.17473 2.21438 5.0116 2.08427 4.87569C1.97072 4.75704 1.85084 4.64326 1.74607 4.51708C1.3723 4.06657 1.36036 3.44222 1.75241 3.01115C2.14689 2.57742 2.56208 2.15997 2.99432 1.76392C3.43169 1.363 4.06056 1.37297 4.52132 1.74909C4.60002 1.81327 4.67287 1.88475 4.74548 1.95599C5.07978 2.28299 5.15945 2.28518 5.59779 2.11985C5.92673 1.99562 6.04344 1.7875 6.0393 1.44007C6.0276 0.480212 6.48714 0.0357774 7.44958 0.0348049C7.89571 0.0343186 8.34209 0.0306712 8.78823 0.0365062C9.47558 0.0455019 9.97021 0.539534 9.98458 1.22345C9.98531 1.25481 9.98507 1.28618 9.98531 1.3173C9.98921 1.91295 10.1276 2.08339 10.7124 2.22124C10.8817 2.26111 11.0216 2.20908 11.1439 2.09773C11.2655 1.98711 11.3776 1.86603 11.503 1.76003C11.9431 1.38853 12.5581 1.35984 12.994 1.72866C13.4657 2.12788 13.9035 2.56842 14.3051 3.03814C14.6684 3.46337 14.6455 4.07775 14.2924 4.51124C14.2432 4.57178 14.1908 4.63062 14.1345 4.68484C13.7035 5.09985 13.7113 5.19005 14.0246 5.81707C14.096 5.96003 14.2313 6.02908 14.3894 6.03978C14.5064 6.0478 14.624 6.04561 14.7415 6.04683C15.5127 6.05388 15.9944 6.53892 15.9985 7.31619C16.0009 7.77789 16.0007 8.23983 15.9985 8.70152C15.9949 9.44695 15.6113 9.88287 14.8723 9.98182C14.7719 9.9952 14.6684 10.0057 14.5682 9.99617C14.2391 9.96481 14.0441 10.1068 13.9218 10.4136C13.7359 10.8799 13.7403 10.9551 14.1199 11.3397C14.7127 11.9402 14.7169 12.5988 14.128 13.1957C13.809 13.5188 13.4891 13.841 13.1638 14.1578C12.601 14.706 11.9441 14.7055 11.3744 14.1626C11.2894 14.0817 11.2075 13.9973 11.1188 13.9207C10.9911 13.8103 10.8396 13.7726 10.6802 13.8274C10.5253 13.8806 10.3727 13.9445 10.2268 14.0187C10.0565 14.1052 9.99311 14.2625 9.98799 14.4471C9.98312 14.627 9.99457 14.8091 9.96923 14.9861C9.89565 15.5008 9.54283 15.8618 9.03091 15.9715C8.96269 15.9861 8.8969 16.0123 8.83014 16.0332H7.1857L7.18521 16.033ZM13.818 3.76801C13.8173 3.65325 13.7786 3.54822 13.7006 3.46872C13.3278 3.0892 12.9577 2.70627 12.5707 2.34159C12.3751 2.15705 12.1638 2.1731 11.957 2.34912C11.8439 2.44516 11.7382 2.55067 11.6354 2.65814C10.9648 3.35907 9.44634 2.73083 9.29455 1.95866C9.25946 1.77972 9.26043 1.60102 9.25629 1.4216C9.24435 0.917352 9.09621 0.769289 8.58599 0.763211C8.2573 0.759321 7.92836 0.76394 7.59967 0.761509C7.01977 0.757132 6.76028 0.799437 6.78342 1.54972C6.80145 2.1342 6.51126 2.54678 5.96206 2.76633C5.84583 2.81276 5.73156 2.86601 5.61192 2.90223C5.15872 3.03936 4.74524 2.97347 4.38999 2.6433C4.29252 2.55262 4.20261 2.45391 4.10223 2.36687C3.86807 2.16386 3.65317 2.15535 3.43363 2.36566C3.0662 2.71746 2.70681 3.07777 2.35448 3.44465C2.15761 3.6496 2.16029 3.85505 2.34352 4.07507C2.44829 4.20101 2.56622 4.31674 2.68196 4.4332C3.36858 5.12465 2.68707 6.64905 1.88958 6.74946C1.78116 6.76308 1.67151 6.76721 1.56211 6.77305C1.46051 6.77839 1.35817 6.77402 1.2573 6.7852C0.921294 6.82191 0.78509 6.96682 0.779486 7.30403C0.773395 7.67966 0.77705 8.05529 0.77705 8.43092C0.77705 9.18315 0.811649 9.21792 1.56942 9.24199C2.11302 9.25925 2.51066 9.50068 2.73215 10.0069C2.7916 10.143 2.84959 10.2801 2.90003 10.4197C3.06571 10.8775 2.95509 11.2811 2.64638 11.6402C2.55477 11.7469 2.44658 11.8393 2.35424 11.9456C2.16906 12.1585 2.15395 12.3739 2.3462 12.5774C2.70632 12.9582 3.0779 13.3287 3.45922 13.6883C3.65439 13.8723 3.86832 13.8587 4.07299 13.6844C4.18605 13.5881 4.28473 13.4753 4.39608 13.3771C5.07905 12.7763 6.44255 13.1602 6.71739 14.0304C6.76223 14.1723 6.78854 14.319 6.78927 14.469C6.78976 14.5786 6.78708 14.6883 6.7939 14.7977C6.8112 15.0812 6.95447 15.2404 7.23321 15.2462C7.74952 15.2569 8.26656 15.2562 8.78287 15.247C9.05576 15.2421 9.19879 15.1072 9.23558 14.8332C9.25922 14.6557 9.25166 14.4741 9.26458 14.2946C9.29235 13.9086 9.47436 13.6081 9.7994 13.4048C10.0321 13.2594 10.2887 13.1588 10.5555 13.0897C10.9334 12.9917 11.2679 13.0936 11.5676 13.326C11.6661 13.4024 11.7508 13.4965 11.841 13.5833C12.1617 13.8925 12.3697 13.8949 12.6821 13.5869C12.944 13.3287 13.203 13.0673 13.463 12.8072C13.9425 12.3275 13.9425 12.2084 13.4613 11.7156C12.8244 11.063 13.0537 9.77298 13.8797 9.37085C14.1409 9.24369 14.4238 9.24151 14.7066 9.23883C15.0863 9.23518 15.2459 9.09879 15.2593 8.72389C15.2761 8.2549 15.2753 7.78469 15.2614 7.3157C15.2507 6.94955 15.087 6.80149 14.7157 6.77864C14.5829 6.77037 14.4496 6.7728 14.3165 6.76891C13.9925 6.75894 13.7162 6.6296 13.5161 6.38283C13.2713 6.08062 13.1241 5.72396 13.072 5.33763C13.0125 4.89611 13.2018 4.5482 13.5149 4.25256C13.6565 4.11884 13.8083 3.98706 13.8168 3.76801H13.818Z" fill="white"/>
<path d="M12.0002 8.02206C11.9706 10.5436 10.2137 11.9635 8.05228 12.0313C5.82549 12.1013 3.99779 10.2446 4.00025 8.03405C4.00297 5.84015 5.79416 4.03514 7.97055 4.03324C10.2091 4.03133 11.9978 5.80148 12.0002 8.02179V8.02206ZM7.99834 11.1966C9.75493 11.1988 11.1786 9.78187 11.1819 8.02833C11.1852 6.2944 9.72578 4.8407 7.99153 4.84968C6.2521 4.85894 4.81425 6.31346 4.82624 8.05093C4.83849 9.80066 6.24393 11.1944 7.99834 11.1964V11.1966Z" fill="white"/>
</g>
<defs>
<clipPath id="clip0_84_204">
<rect width="16" height="16.0331" fill="white"/>
</clipPath>
</defs>
</svg>
