<svg width="16" height="16" viewBox="0 0 16 16" fill="none" xmlns="http://www.w3.org/2000/svg">
<g clip-path="url(#clip0_319_51)">
<path d="M3.00659 0.00114441C3.46453 0.0163993 3.84992 0.184583 4.14819 0.524582C4.67638 1.12679 5.19523 1.73761 5.71069 2.35075C6.2214 2.95818 6.24975 3.73524 5.78979 4.38298C5.58498 4.67122 5.36522 4.94923 5.15894 5.2365C4.83403 5.6892 4.82706 6.1804 5.12476 6.65154C6.21868 8.3811 7.63027 9.79299 9.35913 10.8879C9.83672 11.1903 10.3249 11.1825 10.7869 10.8508C11.0699 10.6474 11.3443 10.4316 11.6277 10.2287C12.2686 9.76955 13.0414 9.78977 13.6462 10.2922C14.2343 10.7807 14.8084 11.2867 15.3953 11.7765C15.7077 12.0374 15.9021 12.3635 15.9998 12.7531V13.3468C15.9412 13.5349 15.8819 13.723 15.824 13.9113C15.6901 14.3465 15.4148 14.6641 15.0154 14.8752C14.1144 15.3512 13.2033 15.8026 12.1912 16.0002H11.5046C10.9417 15.8759 10.3802 15.7472 9.83569 15.5519C8.33595 15.0144 6.99018 14.2063 5.74878 13.2189C4.05503 11.8718 2.63049 10.284 1.52417 8.41911C0.802179 7.2021 0.266219 5.9117 0.0280762 4.50896C-0.048783 4.0564 0.0399595 3.6182 0.173584 3.18864C0.423479 2.38532 0.788628 1.6314 1.19995 0.900558C1.39075 0.561709 1.68148 0.32992 2.05249 0.208176C2.36278 0.106475 2.6679 -0.0101194 3.00659 0.00114441ZM1.70483 1.15446C1.6304 1.05146 1.58734 1.04344 1.52319 1.16228C1.23631 1.69337 0.967794 2.23299 0.746826 2.79509C0.571254 3.24142 0.430725 3.69679 0.403076 4.19646C0.4034 4.20083 0.402509 4.2221 0.406006 4.24236C0.439945 4.43671 0.469224 4.63247 0.510498 4.82536C0.805928 6.20704 1.39816 7.46252 2.16089 8.64079C3.52903 10.7538 5.27306 12.4956 7.38647 13.8625C8.51556 14.5927 9.72175 15.1499 11.0339 15.4787C11.6797 15.6404 12.293 15.6125 12.9119 15.3859C13.5679 15.1456 14.1957 14.847 14.8093 14.5158C14.9908 14.4178 14.9928 14.4118 14.822 14.2873C13.554 13.3617 12.3805 12.3285 11.2986 11.1916C11.2042 11.0923 11.1459 11.0971 11.0427 11.175C10.5569 11.5418 10.022 11.6193 9.45288 11.4025C9.18373 11.3 8.95567 11.1196 8.71948 10.9592C7.12701 9.87761 5.82306 8.51725 4.78979 6.89372C4.38473 6.25716 4.39173 5.57644 4.84058 4.9738C4.9169 4.87153 4.92572 4.81297 4.82593 4.71794C3.67769 3.62506 2.63339 2.43979 1.70483 1.15446ZM12.5847 10.3244C12.4989 10.322 12.3967 10.3322 12.2947 10.3576C12.0392 10.4213 11.8449 10.5874 11.6355 10.7316C11.5245 10.8082 11.5373 10.8539 11.6228 10.9416C12.1356 11.4661 12.6614 11.977 13.2117 12.4621C13.8402 13.0159 14.4935 13.5393 15.1716 14.0314C15.2592 14.095 15.3032 14.0823 15.3494 13.9894C15.4238 13.8391 15.463 13.6768 15.5164 13.5197C15.708 12.9554 15.5821 12.4787 15.1248 12.091C14.5455 11.6001 13.9692 11.1048 13.3894 10.6144C13.1638 10.4237 12.9038 10.3166 12.5847 10.3244ZM3.09155 0.422043C2.73367 0.381783 2.41761 0.519209 2.09741 0.63591C1.9003 0.707833 1.90294 0.72793 2.02319 0.893723C2.57926 1.66058 3.17834 2.393 3.81421 3.09489C4.22629 3.54978 4.65742 3.98644 5.09937 4.41228C5.13593 4.44754 5.1739 4.52059 5.23511 4.4406C5.4698 4.13423 5.71695 3.83298 5.69116 3.44255C5.69703 3.14045 5.61932 2.893 5.44702 2.68767C4.90855 2.04677 4.36623 1.40845 3.81616 0.777512C3.62946 0.563487 3.37905 0.454517 3.09155 0.422043Z" fill="black"/>
<path d="M3.00659 0.00114441C3.46453 0.0163993 3.84992 0.184583 4.14819 0.524582C4.67638 1.12679 5.19523 1.73761 5.71069 2.35075C6.2214 2.95818 6.24975 3.73524 5.78979 4.38298C5.58498 4.67122 5.36522 4.94923 5.15894 5.2365C4.83403 5.6892 4.82706 6.1804 5.12476 6.65154C6.21868 8.3811 7.63027 9.79299 9.35913 10.8879C9.83672 11.1903 10.3249 11.1825 10.7869 10.8508C11.0699 10.6474 11.3443 10.4316 11.6277 10.2287C12.2686 9.76955 13.0414 9.78977 13.6462 10.2922C14.2343 10.7807 14.8084 11.2867 15.3953 11.7765C15.7077 12.0374 15.9021 12.3635 15.9998 12.7531V13.3468C15.9412 13.5349 15.8819 13.723 15.824 13.9113C15.6901 14.3465 15.4148 14.6641 15.0154 14.8752C14.1144 15.3512 13.2033 15.8026 12.1912 16.0002H11.5046C10.9417 15.8759 10.3802 15.7472 9.83569 15.5519C8.33595 15.0144 6.99018 14.2063 5.74878 13.2189C4.05503 11.8718 2.63049 10.284 1.52417 8.41911C0.802179 7.2021 0.266219 5.9117 0.0280762 4.50896C-0.048783 4.0564 0.0399595 3.6182 0.173584 3.18864C0.423479 2.38532 0.788628 1.6314 1.19995 0.900558C1.39075 0.561709 1.68148 0.32992 2.05249 0.208176C2.36278 0.106475 2.6679 -0.0101194 3.00659 0.00114441ZM1.70483 1.15446C1.6304 1.05146 1.58734 1.04344 1.52319 1.16228C1.23631 1.69337 0.967794 2.23299 0.746826 2.79509C0.571254 3.24142 0.430725 3.69679 0.403076 4.19646C0.4034 4.20083 0.402509 4.2221 0.406006 4.24236C0.439945 4.43671 0.469224 4.63247 0.510498 4.82536C0.805928 6.20704 1.39816 7.46252 2.16089 8.64079C3.52903 10.7538 5.27306 12.4956 7.38647 13.8625C8.51556 14.5927 9.72175 15.1499 11.0339 15.4787C11.6797 15.6404 12.293 15.6125 12.9119 15.3859C13.5679 15.1456 14.1957 14.847 14.8093 14.5158C14.9908 14.4178 14.9928 14.4118 14.822 14.2873C13.554 13.3617 12.3805 12.3285 11.2986 11.1916C11.2042 11.0923 11.1459 11.0971 11.0427 11.175C10.5569 11.5418 10.022 11.6193 9.45288 11.4025C9.18373 11.3 8.95567 11.1196 8.71948 10.9592C7.12701 9.87761 5.82306 8.51725 4.78979 6.89372C4.38473 6.25716 4.39173 5.57644 4.84058 4.9738C4.9169 4.87153 4.92572 4.81297 4.82593 4.71794C3.67769 3.62506 2.63339 2.43979 1.70483 1.15446ZM12.5847 10.3244C12.4989 10.322 12.3967 10.3322 12.2947 10.3576C12.0392 10.4213 11.8449 10.5874 11.6355 10.7316C11.5245 10.8082 11.5373 10.8539 11.6228 10.9416C12.1356 11.4661 12.6614 11.977 13.2117 12.4621C13.8402 13.0159 14.4935 13.5393 15.1716 14.0314C15.2592 14.095 15.3032 14.0823 15.3494 13.9894C15.4238 13.8391 15.463 13.6768 15.5164 13.5197C15.708 12.9554 15.5821 12.4787 15.1248 12.091C14.5455 11.6001 13.9692 11.1048 13.3894 10.6144C13.1638 10.4237 12.9038 10.3166 12.5847 10.3244ZM3.09155 0.422043C2.73367 0.381783 2.41761 0.519209 2.09741 0.63591C1.9003 0.707833 1.90294 0.72793 2.02319 0.893723C2.57926 1.66058 3.17834 2.393 3.81421 3.09489C4.22629 3.54978 4.65742 3.98644 5.09937 4.41228C5.13593 4.44754 5.1739 4.52059 5.23511 4.4406C5.4698 4.13423 5.71695 3.83298 5.69116 3.44255C5.69703 3.14045 5.61932 2.893 5.44702 2.68767C4.90855 2.04677 4.36623 1.40845 3.81616 0.777512C3.62946 0.563487 3.37905 0.454517 3.09155 0.422043Z" stroke="black"/>
</g>
<defs>
<clipPath id="clip0_319_51">
<rect width="16" height="16" fill="white"/>
</clipPath>
</defs>
</svg>
