<svg width="19" height="19" viewBox="0 0 19 19" fill="none" xmlns="http://www.w3.org/2000/svg">
<g clip-path="url(#clip0_319_28)">
<path d="M12.7408 0.0369786C12.8833 0.110934 12.8985 0.237228 12.8983 0.381726C12.8954 1.86293 12.8998 3.34413 12.8924 4.82533C12.8915 5.00567 12.9409 5.05365 13.1187 5.04928C13.6028 5.03772 13.603 5.04587 13.6999 5.52241C13.7123 5.58271 13.7385 5.64359 13.7358 5.70313C13.7221 6.00142 13.9452 6.06949 14.1576 6.15369C14.2289 6.18195 14.2748 6.14326 14.3261 6.11027C14.5025 5.99668 14.6803 5.88555 14.854 5.76798C14.9826 5.68094 15.0913 5.69308 15.2 5.80306C15.5078 6.11482 15.8176 6.42467 16.1292 6.73301C16.2408 6.84338 16.2429 6.95431 16.1577 7.08022C16.0472 7.24368 15.9415 7.41037 15.8346 7.5763C15.713 7.76498 15.8518 8.10669 16.0683 8.15429C16.2729 8.19923 16.4769 8.24683 16.682 8.2895C16.8188 8.31813 16.8818 8.4027 16.8822 8.53734C16.8832 8.98165 16.8822 9.42614 16.8828 9.87044C16.8828 10.017 16.807 10.098 16.6673 10.1274C16.4623 10.1704 16.2573 10.2135 16.0527 10.2582C15.8617 10.3 15.7168 10.6515 15.823 10.8175C15.9358 10.9942 16.051 11.1694 16.1665 11.3444C16.2465 11.4656 16.2349 11.5733 16.1313 11.6763C15.8205 11.9852 15.5102 12.2947 15.2024 12.6064C15.0943 12.716 14.9841 12.731 14.8559 12.6444C14.7282 12.5581 14.5874 12.4881 14.4702 12.3899C14.3028 12.2495 14.146 12.2332 13.9534 12.3409C13.8548 12.3961 13.7854 12.438 13.7674 12.5621C13.7379 12.7627 13.683 12.9595 13.641 13.1584C13.6108 13.3018 13.5228 13.3627 13.3788 13.3668C13.2262 13.3712 13.0246 13.2984 12.9334 13.3968C12.8288 13.5098 12.9021 13.715 12.8989 13.8798C12.8928 14.1944 12.8945 14.5094 12.8977 14.824C12.8994 15.0015 12.8153 15.0868 12.641 15.0887C12.5732 15.0894 12.5052 15.0898 12.4374 15.0898C9.91928 15.0898 7.40122 15.0898 4.88315 15.0898C4.71506 15.0898 4.63095 15.1716 4.63083 15.3352C4.63083 15.7302 4.63197 16.1252 4.63026 16.5202C4.62931 16.7432 4.56471 16.81 4.3464 16.8101C3.15529 16.8113 1.96418 16.8111 0.772876 16.8101C0.552666 16.8101 0.483886 16.7426 0.483696 16.5248C0.482556 15.3337 0.482746 14.1424 0.483696 12.9514C0.483696 12.7259 0.544306 12.665 0.767556 12.6641C1.23667 12.6624 1.70578 12.6593 2.1747 12.6662C2.30371 12.6681 2.34247 12.629 2.34228 12.4993C2.3419 12.0897 2.34722 12.0897 1.93948 12.0897C1.55682 12.0897 1.17416 12.0918 0.791496 12.0887C0.543736 12.0868 0.483696 12.0254 0.483506 11.7823C0.482746 10.6036 0.482746 9.42462 0.483506 8.24588C0.483506 7.99652 0.547916 7.93432 0.804416 7.93375C1.24883 7.9328 1.69324 7.92635 2.13746 7.93735C2.29687 7.94133 2.34437 7.90341 2.34342 7.73615C2.33582 6.42771 2.3419 5.11926 2.33601 3.811C2.33525 3.64242 2.3875 3.52238 2.50587 3.40481C3.57405 2.34326 4.63729 1.27697 5.70243 0.212387C5.76285 0.151894 5.82707 0.095195 5.88958 0.0367889C8.17357 0.0367889 10.4576 0.0367889 12.7414 0.0367889L12.7408 0.0369786ZM8.5359 14.6618C9.7766 14.6618 11.0171 14.6584 12.2576 14.6658C12.4313 14.6668 12.482 14.6142 12.4729 14.4468C12.4602 14.213 12.4697 13.9778 12.4697 13.7433C12.4697 13.3735 12.4697 13.3686 12.0923 13.368C11.9215 13.3678 11.8269 13.2974 11.7942 13.1317C11.7549 12.9322 11.7117 12.7335 11.6688 12.5347C11.6295 12.3527 11.2814 12.2002 11.1243 12.2985C10.9413 12.4128 10.7608 12.5315 10.5801 12.6497C10.4585 12.7293 10.3521 12.7168 10.2489 12.6125C9.94057 12.3011 9.63068 11.9913 9.31888 11.6833C9.20887 11.5748 9.19652 11.465 9.28298 11.3369C9.4002 11.163 9.51402 10.9868 9.62612 10.8095C9.72416 10.6544 9.57767 10.2994 9.39983 10.2599C9.1952 10.2146 8.99 10.1727 8.78479 10.13C8.6383 10.0997 8.55964 10.0176 8.5606 9.86096C8.56307 9.42273 8.56192 8.98449 8.56116 8.54625C8.56098 8.40195 8.62634 8.31623 8.77093 8.28665C8.97005 8.24607 9.16803 8.19923 9.36658 8.15562C9.59648 8.10517 9.73327 7.76801 9.60427 7.56814C9.50072 7.40753 9.4002 7.24463 9.29152 7.08743C9.19995 6.95507 9.20298 6.84205 9.32135 6.72599C9.63391 6.41898 9.94323 6.10837 10.2518 5.79719C10.3553 5.69251 10.461 5.68265 10.5828 5.76343C10.7574 5.87949 10.9339 5.99288 11.1112 6.10496C11.2799 6.21153 11.6276 6.06722 11.6694 5.87418C11.7097 5.68739 11.7471 5.50023 11.7872 5.31344C11.8343 5.09461 11.8924 5.04739 12.1132 5.04492C12.1687 5.04435 12.2253 5.03791 12.2797 5.04606C12.4391 5.06995 12.4735 4.99846 12.4729 4.84885C12.4678 3.45393 12.4683 2.05901 12.4721 0.664086C12.4725 0.527552 12.4469 0.47237 12.2912 0.472749C10.3099 0.478438 8.32879 0.478248 6.34748 0.473128C6.20307 0.472749 6.1761 0.518829 6.17686 0.65138C6.18218 1.60806 6.1799 2.56475 6.17971 3.52143C6.17971 3.82295 6.12347 3.88021 5.82783 3.88021C4.86491 3.8804 3.90218 3.88249 2.93926 3.87775C2.81348 3.87718 2.77073 3.90733 2.77111 4.04045C2.77605 5.28727 2.77567 6.53409 2.77149 7.78072C2.77111 7.90303 2.80835 7.93735 2.92824 7.93583C3.39108 7.92977 3.85411 7.93261 4.31695 7.93375C4.56908 7.93432 4.63007 7.99652 4.63026 8.25271C4.63083 9.42538 4.63083 10.5982 4.63026 11.7709C4.63026 12.0303 4.57535 12.087 4.31543 12.0889C3.93904 12.0916 3.56246 12.0897 3.18588 12.0897C2.76446 12.0897 2.77092 12.0897 2.77054 12.5059C2.77054 12.6451 2.82526 12.6671 2.94515 12.6658C3.40799 12.6605 3.87102 12.6629 4.33386 12.6641C4.57326 12.6646 4.62931 12.72 4.62988 12.9572C4.63121 13.4571 4.63691 13.9574 4.62646 14.457C4.62304 14.6199 4.66826 14.6658 4.8328 14.6651C6.06723 14.6582 7.30165 14.6613 8.53609 14.6613L8.5359 14.6618ZM14.979 12.2C15.0022 12.1839 15.0244 12.1726 15.0415 12.1557C15.2514 11.9469 15.4599 11.7364 15.6706 11.5286C15.7225 11.4774 15.708 11.4347 15.6731 11.3829C15.5872 11.2549 15.514 11.1175 15.4194 10.9967C15.2818 10.8211 15.2547 10.6536 15.378 10.4556C15.4451 10.3477 15.4825 10.2194 15.5218 10.0967C15.5619 9.97189 15.6351 9.9023 15.7667 9.87841C15.9605 9.84332 16.1511 9.79175 16.3445 9.75382C16.4175 9.73941 16.45 9.71058 16.449 9.6334C16.4462 9.34972 16.4465 9.06584 16.4488 8.78215C16.4494 8.7082 16.4245 8.6716 16.3477 8.65757C16.1843 8.62761 16.0238 8.57849 15.8596 8.55574C15.6679 8.529 15.5463 8.44746 15.4981 8.24797C15.4665 8.11826 15.4023 7.99462 15.3402 7.87458C15.2737 7.74602 15.2746 7.63243 15.3592 7.51182C15.4652 7.3605 15.5587 7.20026 15.6634 7.04799C15.7137 6.97479 15.7147 6.9234 15.6466 6.85798C15.4508 6.67005 15.259 6.47777 15.0711 6.28207C15.0075 6.21589 14.9564 6.20925 14.8819 6.26235C14.7563 6.35147 14.6174 6.42297 14.4975 6.51873C14.332 6.65071 14.1861 6.61677 13.9891 6.56576C13.5071 6.44079 13.3087 6.1408 13.2914 5.67412C13.2859 5.52658 13.2188 5.45851 13.0568 5.47595C12.8983 5.49302 12.7364 5.47974 12.5761 5.47974C12.1928 5.47974 12.1723 5.4769 12.1204 5.85199C12.0737 6.1901 11.9618 6.43908 11.5898 6.4918C11.5664 6.49521 11.5421 6.50754 11.5227 6.52176C11.2907 6.69357 11.083 6.64104 10.8719 6.47151C10.7484 6.37233 10.5991 6.2303 10.4671 6.23618C10.32 6.24263 10.2208 6.44003 10.104 6.55703C9.97818 6.68295 9.77184 6.78706 9.75418 6.94634C9.73651 7.10525 9.90883 7.25715 10.0149 7.39804C10.1572 7.58748 10.1931 7.76251 10.0584 7.97205C9.9932 8.07351 9.95861 8.19696 9.92213 8.31415C9.88318 8.43968 9.80833 8.50985 9.67837 8.5345C9.48476 8.57129 9.29381 8.62135 9.10019 8.65814C9.02553 8.67236 8.99512 8.7027 8.9957 8.77893C8.99817 9.06262 8.99817 9.34649 8.9957 9.63018C8.99494 9.70452 9.02002 9.73979 9.0964 9.75363C9.25391 9.78207 9.40819 9.83195 9.56645 9.85186C9.77394 9.87784 9.9037 9.9681 9.9531 10.1816C9.98027 10.2998 10.0378 10.4132 10.096 10.5211C10.1712 10.661 10.1718 10.7843 10.0755 10.9163C9.9704 11.0606 9.88242 11.2172 9.78096 11.3643C9.73042 11.4375 9.72967 11.4891 9.79731 11.5544C9.99282 11.7425 10.1843 11.9351 10.3724 12.1306C10.4357 12.1964 10.4874 12.2037 10.5622 12.1506C10.6876 12.0612 10.8258 11.9888 10.9466 11.8942C11.1117 11.765 11.2681 11.7432 11.4549 11.8549C11.5748 11.9264 11.7152 11.9645 11.8482 12.0127C11.9553 12.0516 12.0232 12.116 12.0456 12.2334C12.084 12.4329 12.1353 12.6299 12.1736 12.8294C12.1881 12.9043 12.2192 12.9328 12.295 12.932C12.5787 12.9292 12.8626 12.9296 13.1464 12.932C13.22 12.9326 13.2564 12.9098 13.2701 12.8319C13.3 12.6622 13.3473 12.4955 13.3746 12.3254C13.4027 12.1498 13.4774 12.0341 13.6638 11.9899C13.7879 11.9605 13.9097 11.9054 14.0212 11.8418C14.1738 11.7546 14.3064 11.7567 14.4487 11.8625C14.5821 11.9617 14.7259 12.0466 14.8659 12.1367C14.9017 12.1598 14.9402 12.1788 14.9796 12.2008L14.979 12.2ZM2.57408 8.36686C2.08027 8.36686 1.58646 8.37104 1.09284 8.36402C0.961356 8.36212 0.911195 8.38905 0.912145 8.5345C0.918795 9.51583 0.917655 10.4972 0.912905 11.4785C0.912335 11.6099 0.939695 11.6628 1.08486 11.6619C2.06621 11.656 3.04756 11.6569 4.02872 11.6609C4.15393 11.6615 4.20067 11.6285 4.19991 11.4952C4.19497 10.5078 4.19402 9.5202 4.20067 8.53279C4.20162 8.3845 4.14652 8.3625 4.0177 8.36421C3.53643 8.37066 3.05497 8.36686 2.57351 8.36686H2.57408ZM2.54729 16.3765C3.04072 16.3765 3.53434 16.371 4.02758 16.3799C4.17046 16.3825 4.20124 16.3361 4.20048 16.2016C4.19516 15.2209 4.19573 14.2401 4.19991 13.2593C4.20048 13.1345 4.16932 13.0871 4.03632 13.0877C3.04946 13.0924 2.06241 13.0924 1.07555 13.0877C0.941406 13.0871 0.912715 13.1361 0.913285 13.2597C0.917466 14.2405 0.918226 15.2212 0.912716 16.202C0.911956 16.3366 0.942926 16.3823 1.08543 16.3797C1.57259 16.3706 2.05994 16.3763 2.54729 16.3763V16.3765ZM5.74461 0.850871C4.87517 1.71786 4.01276 2.57783 3.14883 3.43951C3.15719 3.44065 3.17942 3.44615 3.20165 3.44634C4.00383 3.44691 4.80582 3.44444 5.608 3.44937C5.73169 3.45013 5.7467 3.39647 5.74613 3.29407C5.7429 2.70792 5.74461 2.12177 5.74461 1.53563C5.74461 1.30333 5.74461 1.07084 5.74461 0.850871Z" fill="black"/>
<path d="M2.48143 19C2.36477 18.9281 2.32696 18.8255 2.33 18.6883C2.33798 18.3304 2.33513 17.9724 2.33171 17.6146C2.33038 17.4663 2.37389 17.3555 2.53691 17.3398C2.67238 17.3267 2.76092 17.435 2.76358 17.6157C2.76719 17.881 2.76871 18.1465 2.76282 18.4118C2.76054 18.5191 2.78657 18.5777 2.90532 18.5608C2.93553 18.5565 2.96688 18.5603 2.99785 18.5603C7.9597 18.5603 12.9214 18.5604 17.8832 18.5597C18.1507 18.5597 18.1207 18.5953 18.1207 18.3249C18.1215 13.0299 18.1213 7.73483 18.1213 2.43979C18.1213 2.27354 18.0386 2.19036 17.8731 2.19023C16.6944 2.19023 15.5156 2.19023 14.3369 2.19023H14.0899C14.2588 2.35938 14.3901 2.4908 14.5212 2.62221C14.7095 2.81108 14.7372 2.91386 14.6314 3.0284C14.52 3.149 14.4081 3.12207 14.2134 2.92732C13.9645 2.67872 13.7148 2.43087 13.4676 2.18075C13.3173 2.02867 13.3179 1.9238 13.4688 1.77172C13.7382 1.49998 14.0106 1.23146 14.2797 0.959342C14.3838 0.854097 14.4949 0.808776 14.6205 0.913641C14.7298 1.00466 14.7167 1.13228 14.5835 1.26616C14.4362 1.41426 14.2821 1.55554 14.121 1.70933C14.2092 1.78291 14.2846 1.76053 14.3521 1.76072C15.6296 1.76243 16.907 1.76167 18.1846 1.76205C18.5182 1.76205 18.5545 1.7994 18.5545 2.13543C18.5545 7.63414 18.5543 13.1328 18.556 18.6316C18.556 18.7787 18.5535 18.9162 18.4074 19.0002H2.48143V19Z" fill="black"/>
<path d="M9.31778 2.87612C8.59616 2.87612 7.87435 2.8765 7.15273 2.87594C6.87609 2.87575 6.81776 2.81658 6.81738 2.54029C6.817 2.19478 6.81567 1.84947 6.81795 1.50396C6.81928 1.29707 6.8892 1.22558 7.09554 1.22539C8.5821 1.22426 10.0687 1.22426 11.5552 1.22539C11.7517 1.22539 11.8226 1.29499 11.825 1.49315C11.8294 1.84473 11.8277 2.1963 11.8264 2.54788C11.8254 2.81601 11.7669 2.87537 11.5016 2.87575C10.7738 2.87669 10.0459 2.87612 9.31797 2.87612H9.31778ZM9.31436 2.44377C9.95599 2.44377 10.5976 2.44111 11.2391 2.44604C11.358 2.44699 11.4074 2.41343 11.4015 2.29036C11.3941 2.13657 11.3907 1.98126 11.4025 1.82804C11.4137 1.68221 11.3519 1.65301 11.2201 1.65604C10.8625 1.66401 10.5045 1.6587 10.1468 1.6587C9.23988 1.6587 8.33301 1.66135 7.42614 1.65585C7.29219 1.6551 7.23595 1.6843 7.24849 1.82823C7.26122 1.97519 7.26046 2.12481 7.24849 2.27196C7.23709 2.414 7.29086 2.44832 7.42652 2.4468C8.05561 2.44017 8.68489 2.44396 9.31417 2.44377H9.31436Z" fill="black"/>
<path d="M7.72794 4.6247C8.97453 4.6247 10.2209 4.6247 11.4675 4.62508C11.5352 4.62508 11.6049 4.62186 11.6701 4.63589C11.7649 4.65618 11.8154 4.72521 11.8202 4.8223C11.8251 4.92527 11.7858 5.00719 11.6809 5.03411C11.6163 5.0508 11.5467 5.05251 11.4793 5.05251C8.96769 5.05327 6.45627 5.05327 3.94466 5.05289C3.89545 5.05289 3.84567 5.05232 3.79703 5.04587C3.67467 5.02956 3.60399 4.95219 3.60703 4.83424C3.61007 4.71876 3.67733 4.63817 3.8033 4.62887C3.86467 4.62432 3.92661 4.62489 3.98836 4.62489C5.23495 4.6247 6.48135 4.62489 7.72794 4.62489V4.6247Z" fill="black"/>
<path d="M8.37105 13.4099C9.40123 13.4099 10.4314 13.4099 11.4616 13.4099C11.5171 13.4099 11.5731 13.4061 11.628 13.4125C11.7394 13.4256 11.8087 13.4882 11.8197 13.6026C11.8315 13.726 11.7692 13.8047 11.6533 13.8335C11.5948 13.8481 11.5308 13.8434 11.4694 13.8434C9.39667 13.8438 7.32396 13.8438 5.25125 13.8438C5.20812 13.8438 5.16461 13.8462 5.12186 13.8419C4.9881 13.828 4.89519 13.7586 4.89956 13.6191C4.90393 13.4816 4.99399 13.4108 5.13269 13.4105C5.50889 13.4097 5.88528 13.4099 6.26148 13.4099C6.96467 13.4099 7.66786 13.4099 8.37124 13.4099H8.37105Z" fill="black"/>
<path d="M6.29771 6.81133C5.51491 6.81133 4.7323 6.81133 3.9495 6.81114C3.89421 6.81114 3.83702 6.81626 3.78363 6.80488C3.67495 6.78193 3.60883 6.70798 3.60674 6.59761C3.60465 6.48668 3.6702 6.41253 3.77736 6.38523C3.8241 6.37328 3.87521 6.37688 3.92442 6.37669C5.50826 6.37631 7.09229 6.37631 8.67613 6.37669C8.73123 6.37669 8.78956 6.37271 8.84105 6.38826C8.94612 6.41993 9.0054 6.49388 8.99818 6.60918C8.99153 6.71594 8.92788 6.77909 8.82984 6.80298C8.77721 6.81588 8.71964 6.81076 8.66416 6.81076C7.87528 6.81114 7.0864 6.81095 6.29752 6.81095L6.29771 6.81133Z" fill="black"/>
<path d="M7.13051 12.0766C6.53885 12.0766 5.94719 12.0753 5.35534 12.0775C5.20486 12.0781 5.07908 12.0518 5.06882 11.8695C5.06084 11.7279 5.15679 11.6473 5.34527 11.6469C6.52859 11.6448 7.7121 11.6454 8.89542 11.6461C9.04229 11.6461 9.17206 11.6786 9.18251 11.8598C9.19087 12.0068 9.09454 12.0762 8.88706 12.0764C8.30148 12.0774 7.7159 12.0768 7.13051 12.0768V12.0766Z" fill="black"/>
<path d="M6.62883 9.89244C7.14031 9.89244 7.65179 9.89415 8.16327 9.89149C8.31508 9.89073 8.43801 9.92278 8.45074 10.1012C8.46119 10.2482 8.35897 10.3265 8.15928 10.3269C7.13632 10.3278 6.11355 10.3269 5.09059 10.328C4.93859 10.328 4.81661 10.289 4.80084 10.1154C4.78792 9.97284 4.89698 9.89339 5.09458 9.89301C5.60606 9.89206 6.11754 9.89263 6.62902 9.89263L6.62883 9.89244Z" fill="black"/>
<path d="M6.73717 8.56313C6.28136 8.56313 5.82536 8.56124 5.36955 8.56408C5.21622 8.56503 5.08607 8.52559 5.08569 8.35132C5.08531 8.17705 5.21698 8.13609 5.36917 8.13628C6.28098 8.13741 7.19279 8.1376 8.1046 8.13609C8.25774 8.1359 8.38827 8.1778 8.38827 8.35075C8.38827 8.5235 8.25983 8.56541 8.10517 8.56427C7.64936 8.56086 7.19336 8.56313 6.73755 8.56313H6.73717Z" fill="black"/>
<path d="M12.7097 11.0297C11.696 11.0162 10.8796 10.178 10.8988 9.17071C10.9178 8.1778 11.7532 7.36827 12.7435 7.38344C13.7478 7.3988 14.5639 8.23659 14.5447 9.23253C14.5253 10.2323 13.6978 11.0429 12.7098 11.0297H12.7097ZM14.1128 9.19896C14.11 8.43684 13.4752 7.80783 12.7159 7.81447C11.9519 7.82111 11.331 8.44878 11.3318 9.21318C11.3327 9.97398 11.9643 10.5986 12.7294 10.5952C13.4938 10.5918 14.1155 9.96412 14.1126 9.19896H14.1128Z" fill="black"/>
<path d="M2.33853 10.3677C2.33853 10.0197 2.33853 9.68422 2.33853 9.34877C2.33853 9.28107 2.3391 9.21337 2.33853 9.14548C2.33739 8.99738 2.38964 8.88398 2.55418 8.88266C2.71815 8.88133 2.77401 8.99075 2.77363 9.14093C2.77287 9.48587 2.77363 9.83062 2.77363 10.1756C2.77363 10.2349 2.77363 10.2941 2.77363 10.397C2.86046 10.3174 2.91518 10.2639 2.97351 10.2148C3.07269 10.1316 3.17833 10.1249 3.27086 10.2186C3.36244 10.3113 3.36301 10.4238 3.27542 10.5165C3.09359 10.7088 2.90511 10.8952 2.71454 11.079C2.61555 11.1743 2.50079 11.1768 2.40104 11.081C2.21009 10.8977 2.02237 10.7107 1.8394 10.5194C1.75086 10.4268 1.74763 10.3159 1.83712 10.2213C1.92756 10.1257 2.03225 10.1314 2.13523 10.2097C2.19679 10.2563 2.23479 10.3322 2.33834 10.3678L2.33853 10.3677Z" fill="black"/>
<path d="M2.94183 14.955C2.51053 14.955 2.12825 14.9556 1.74616 14.9544C1.69106 14.9544 1.6333 14.9556 1.58124 14.9406C1.47465 14.9099 1.41062 14.8316 1.42164 14.7208C1.43437 14.5943 1.51455 14.5223 1.64622 14.5219C1.9981 14.5208 2.34979 14.5211 2.70167 14.5209C2.7676 14.5209 2.83353 14.5209 2.92036 14.5209C2.88008 14.4208 2.80693 14.3806 2.76038 14.3203C2.68305 14.2202 2.67032 14.1127 2.76418 14.0201C2.85709 13.9287 2.97242 13.9314 3.064 14.0175C3.25723 14.1991 3.44286 14.3891 3.62716 14.5799C3.72482 14.6812 3.71893 14.7944 3.62355 14.8932C3.44362 15.0798 3.26027 15.263 3.07426 15.4435C2.97603 15.5389 2.86165 15.5516 2.76342 15.4482C2.66747 15.3473 2.68115 15.2364 2.77463 15.1353C2.81928 15.0872 2.86393 15.039 2.94183 14.9548V14.955Z" fill="black"/>
</g>
<defs>
<clipPath id="clip0_319_28">
<rect width="19" height="19" fill="white"/>
</clipPath>
</defs>
</svg>
