<svg width="113" height="140" viewBox="0 0 113 140" fill="none" xmlns="http://www.w3.org/2000/svg">
<path d="M5.23145 123.425C5.15397 123.425 5.08757 123.45 5.03223 123.5C4.97689 123.544 4.93815 123.597 4.91602 123.658C4.91602 123.658 4.91602 123.66 4.91602 123.666C4.91602 123.666 4.91325 123.672 4.90771 123.683C4.90218 123.694 4.89665 123.713 4.89111 123.741C4.88558 123.768 4.87728 123.81 4.86621 123.865C4.85514 123.915 4.83854 123.979 4.81641 124.056C4.7998 124.134 4.77767 124.23 4.75 124.347C4.72233 124.463 4.68913 124.598 4.65039 124.753C4.63379 124.859 4.65592 124.95 4.7168 125.027C4.77767 125.105 4.85791 125.144 4.95752 125.144C4.96305 125.144 4.97135 125.144 4.98242 125.144C4.99349 125.144 5.01009 125.144 5.03223 125.144C5.0599 125.144 5.09863 125.144 5.14844 125.144C5.19824 125.144 5.25911 125.144 5.33105 125.144C5.40853 125.144 5.49984 125.144 5.60498 125.144C5.71566 125.144 5.8457 125.144 5.99512 125.144C6.14453 125.144 6.31608 125.144 6.50977 125.144C6.70345 125.144 6.92204 125.144 7.16553 125.144C7.41455 125.144 7.69124 125.144 7.99561 125.144C8.29997 125.144 8.63477 125.144 9 125.144C9.74707 125.144 10.342 125.434 10.7847 126.015C11.2329 126.591 11.3713 127.255 11.1997 128.007C11.1997 128.007 11.1997 128.01 11.1997 128.016C11.1997 128.016 11.1969 128.021 11.1914 128.032C11.1914 128.043 11.1886 128.063 11.1831 128.09C11.1776 128.112 11.1693 128.148 11.1582 128.198C11.1471 128.243 11.1305 128.301 11.1084 128.373C11.0918 128.444 11.0697 128.536 11.042 128.646C11.0199 128.752 10.9894 128.876 10.9507 129.02C10.9175 129.164 10.876 129.33 10.8262 129.518C10.7819 129.706 10.7321 129.919 10.6768 130.157C10.5329 130.7 10.2451 131.142 9.81348 131.485C9.38184 131.828 8.88102 132 8.31104 132C8.31104 132 8.30827 132 8.30273 132C8.30273 132 8.29443 132 8.27783 132C8.26676 132 8.24463 132 8.21143 132C8.17822 132 8.13118 132 8.07031 132C8.01497 132 7.94027 132 7.84619 132C7.75765 132 7.64697 132 7.51416 132C7.38135 132 7.22363 132 7.04102 132C6.8584 132 6.64811 132 6.41016 132C6.17773 132 5.91211 132 5.61328 132C5.31445 132 4.97965 132 4.60889 132C4.24365 132 3.83691 132 3.38867 132C2.94043 132 2.45068 132 1.91943 132C1.38818 132 0.809896 132 0.18457 132C0.18457 131.994 0.18457 131.986 0.18457 131.975C0.190104 131.958 0.195638 131.936 0.201172 131.909C0.21224 131.875 0.223307 131.831 0.234375 131.776C0.250977 131.721 0.270345 131.649 0.29248 131.56C0.314616 131.472 0.339518 131.364 0.367188 131.236C0.394857 131.109 0.42806 130.96 0.466797 130.788C0.511068 130.611 0.560872 130.409 0.616211 130.182C0.671549 129.955 0.732422 129.701 0.798828 129.418C0.804362 129.418 0.812663 129.418 0.82373 129.418C0.840332 129.418 0.862467 129.418 0.890137 129.418C0.917806 129.418 0.956543 129.418 1.00635 129.418C1.06169 129.418 1.12809 129.418 1.20557 129.418C1.28857 129.418 1.38818 129.418 1.50439 129.418C1.62061 129.418 1.75618 129.418 1.91113 129.418C2.07161 129.418 2.25423 129.418 2.45898 129.418C2.66927 129.418 2.90446 129.418 3.16455 129.418C3.43018 129.418 3.72624 129.418 4.05273 129.418C4.37923 129.418 4.73893 129.418 5.13184 129.418C5.52474 129.418 5.95361 129.418 6.41846 129.418C6.88883 129.418 7.39795 129.418 7.9458 129.418C8.10075 129.418 8.20866 129.338 8.26953 129.178C8.26953 129.172 8.26953 129.164 8.26953 129.153C8.27507 129.142 8.2806 129.122 8.28613 129.095C8.29167 129.067 8.29997 129.028 8.31104 128.979C8.32764 128.923 8.34424 128.857 8.36084 128.779C8.38298 128.702 8.40788 128.605 8.43555 128.489C8.46322 128.373 8.49365 128.237 8.52686 128.082C8.56559 127.982 8.55452 127.894 8.49365 127.816C8.43831 127.733 8.36084 127.692 8.26123 127.692C8.26676 127.692 8.26676 127.692 8.26123 127.692C8.26123 127.692 8.25293 127.692 8.23633 127.692C8.22526 127.692 8.20589 127.692 8.17822 127.692C8.15609 127.692 8.12012 127.692 8.07031 127.692C8.02051 127.692 7.95687 127.692 7.87939 127.692C7.80192 127.692 7.70785 127.692 7.59717 127.692C7.49202 127.692 7.36475 127.692 7.21533 127.692C7.06592 127.692 6.8916 127.692 6.69238 127.692C6.4987 127.692 6.27734 127.692 6.02832 127.692C5.7793 127.692 5.49984 127.692 5.18994 127.692C4.88558 127.692 4.55078 127.692 4.18555 127.692C3.43848 127.692 2.84082 127.41 2.39258 126.845C1.94434 126.275 1.80599 125.606 1.97754 124.836C1.97754 124.831 1.97754 124.823 1.97754 124.812C1.98307 124.8 1.98861 124.781 1.99414 124.753C2.00521 124.726 2.01628 124.69 2.02734 124.646C2.03841 124.596 2.05225 124.535 2.06885 124.463C2.08545 124.391 2.10758 124.302 2.13525 124.197C2.16292 124.092 2.19336 123.968 2.22656 123.824C2.25977 123.674 2.2985 123.506 2.34277 123.317C2.39258 123.129 2.44792 122.916 2.50879 122.678C2.97917 121.477 3.76497 120.877 4.86621 120.877C4.87174 120.877 4.88005 120.877 4.89111 120.877C4.90771 120.877 4.93262 120.877 4.96582 120.877C4.99902 120.877 5.04606 120.877 5.10693 120.877C5.16781 120.877 5.24251 120.877 5.33105 120.877C5.42513 120.877 5.53857 120.877 5.67139 120.877C5.8042 120.877 5.96191 120.877 6.14453 120.877C6.32715 120.877 6.53467 120.877 6.76709 120.877C7.00505 120.877 7.27344 120.877 7.57227 120.877C7.87663 120.877 8.21419 120.877 8.58496 120.877C8.95573 120.877 9.36523 120.877 9.81348 120.877C10.2617 120.877 10.7542 120.877 11.291 120.877C11.8278 120.877 12.4089 120.877 13.0342 120.877C13.0342 120.877 13.0342 120.88 13.0342 120.885C13.0342 120.885 13.0314 120.894 13.0259 120.91C13.0259 120.921 13.0203 120.943 13.0093 120.977C13.0037 121.004 12.9927 121.046 12.9761 121.101C12.965 121.156 12.9456 121.228 12.918 121.317C12.8958 121.4 12.8682 121.505 12.835 121.632C12.8073 121.754 12.7713 121.901 12.7271 122.072C12.6828 122.244 12.6302 122.443 12.5693 122.67C12.514 122.891 12.4504 123.143 12.3784 123.425C12.3784 123.425 12.3757 123.425 12.3701 123.425C12.3701 123.425 12.3646 123.425 12.3535 123.425C12.3424 123.425 12.3203 123.425 12.2871 123.425C12.2594 123.425 12.2207 123.425 12.1709 123.425C12.1211 123.425 12.0547 123.425 11.9717 123.425C11.8887 123.425 11.7891 123.425 11.6729 123.425C11.5566 123.425 11.4183 123.425 11.2578 123.425C11.1029 123.425 10.9202 123.425 10.71 123.425C10.5052 123.425 10.27 123.425 10.0044 123.425C9.7443 123.425 9.45101 123.425 9.12451 123.425C8.80355 123.425 8.44661 123.425 8.05371 123.425C7.66081 123.425 7.22917 123.425 6.75879 123.425C6.28841 123.425 5.7793 123.425 5.23145 123.425ZM11.0835 132L13.3579 122.72C13.7951 121.491 14.5615 120.877 15.6572 120.877H23.7671L21.0693 132H18.4297L19.1768 128.929L20.5215 123.425H16.0391C15.9782 123.425 15.9146 123.45 15.8481 123.5C15.7873 123.55 15.7458 123.616 15.7236 123.699L15.0679 126.389H19.0273L18.4048 128.937H14.4536L13.7065 132H11.0835ZM33.3794 132C33.1857 132 33.0031 132 32.8315 132C32.6655 132 32.5106 132 32.3667 132C32.2284 132 32.0983 132 31.9766 132C31.8604 132 31.7524 132 31.6528 132C31.5588 132 31.473 132 31.3955 132C31.318 132 31.2489 132 31.188 132C31.1271 132 31.0718 132 31.022 132C30.9777 132 30.939 132 30.9058 132C30.8781 132 30.8532 132 30.8311 132C30.8089 132 30.7896 132 30.7729 132C30.7619 132 30.7536 132 30.748 132C30.7425 132 30.737 132 30.7314 132C30.9915 130.976 31.2101 130.107 31.3872 129.394C31.5698 128.674 31.7165 128.085 31.8271 127.625C31.9378 127.166 32.0208 126.809 32.0762 126.555C32.137 126.295 32.1785 126.118 32.2007 126.023C32.2228 125.924 32.2339 125.874 32.2339 125.874C30.9279 127.827 29.9871 129.203 29.4116 130C28.8416 130.791 28.5566 131.187 28.5566 131.187C28.1637 131.187 27.8123 131.065 27.5024 130.821C27.1925 130.572 26.9906 130.249 26.8965 129.85C26.8356 129.557 26.7803 129.283 26.7305 129.028C26.6807 128.768 26.6336 128.528 26.5894 128.306C26.5451 128.085 26.5036 127.883 26.4648 127.7C26.4316 127.512 26.3984 127.34 26.3652 127.186C26.3376 127.031 26.3099 126.892 26.2822 126.771C26.2601 126.643 26.238 126.53 26.2158 126.43C26.1992 126.331 26.1826 126.245 26.166 126.173C26.1549 126.095 26.1439 126.029 26.1328 125.974C26.1217 125.918 26.1107 125.871 26.0996 125.833C26.0941 125.788 26.0885 125.755 26.083 125.733C26.0775 125.705 26.0719 125.686 26.0664 125.675C26.0664 125.658 26.0664 125.65 26.0664 125.65C26.0664 125.644 26.0664 125.642 26.0664 125.642C25.8063 126.71 25.585 127.617 25.4023 128.364C25.2253 129.106 25.0814 129.717 24.9707 130.199C24.86 130.675 24.7743 131.045 24.7134 131.311C24.658 131.571 24.6193 131.751 24.5972 131.851C24.575 131.95 24.564 132 24.564 132C24.3703 132 24.1877 132 24.0161 132C23.8501 132 23.6951 132 23.5513 132C23.4129 132 23.2829 132 23.1611 132C23.0449 132 22.937 132 22.8374 132C22.7378 132 22.6493 132 22.5718 132C22.4943 132 22.4251 132 22.3643 132C22.3034 132 22.248 132 22.1982 132C22.154 132 22.1152 132 22.082 132C22.0488 132 22.0212 132 21.999 132C21.9769 132 21.9603 132 21.9492 132C21.9326 132 21.9215 132 21.916 132C21.9105 132 21.9077 132 21.9077 132C21.9022 132 21.8994 132 21.8994 132C22.0654 131.297 22.2204 130.641 22.3643 130.033C22.5081 129.424 22.6382 128.862 22.7544 128.348C22.8761 127.827 22.9868 127.352 23.0864 126.92C23.1916 126.483 23.2856 126.084 23.3687 125.725C23.4572 125.365 23.5347 125.041 23.6011 124.753C23.673 124.46 23.7339 124.2 23.7837 123.973C23.839 123.741 23.8861 123.539 23.9248 123.367C23.9691 123.19 24.005 123.038 24.0327 122.911C24.0659 122.778 24.0936 122.667 24.1157 122.579C24.1379 122.49 24.1545 122.418 24.1655 122.363C24.1766 122.302 24.1849 122.258 24.1904 122.23C24.2015 122.197 24.207 122.175 24.207 122.164C24.2126 122.147 24.2153 122.139 24.2153 122.139C24.2209 122.133 24.2209 122.13 24.2153 122.13C24.5197 121.295 25.0648 120.877 25.8506 120.877C26.0221 120.877 26.1743 120.877 26.3071 120.877C26.4455 120.877 26.5645 120.877 26.6641 120.877C26.7692 120.877 26.8605 120.877 26.938 120.877C27.0155 120.877 27.0819 120.877 27.1372 120.877C27.1925 120.877 27.2368 120.877 27.27 120.877C27.3088 120.877 27.3364 120.877 27.353 120.877C27.3752 120.877 27.3918 120.877 27.4028 120.877C27.4139 120.877 27.4194 120.877 27.4194 120.877C27.425 120.877 27.4277 120.877 27.4277 120.877C27.4997 121.226 27.5661 121.555 27.627 121.865C27.6934 122.175 27.7542 122.465 27.8096 122.736C27.8649 123.007 27.9175 123.265 27.9673 123.508C28.0171 123.746 28.0614 123.97 28.1001 124.181C28.1444 124.385 28.1831 124.576 28.2163 124.753C28.255 124.931 28.2882 125.097 28.3159 125.251C28.3491 125.401 28.3768 125.539 28.3989 125.667C28.4266 125.788 28.4487 125.902 28.4653 126.007C28.4875 126.106 28.5068 126.198 28.5234 126.281C28.54 126.364 28.5539 126.438 28.5649 126.505C28.576 126.566 28.5871 126.621 28.5981 126.671C28.6092 126.721 28.6175 126.762 28.623 126.795C28.6286 126.829 28.6313 126.859 28.6313 126.887C28.6369 126.909 28.6396 126.928 28.6396 126.945C28.6452 126.956 28.6479 126.964 28.6479 126.97C28.6535 126.975 28.6562 126.981 28.6562 126.986C28.6562 126.986 28.6535 126.986 28.6479 126.986C29.0132 126.466 29.348 125.987 29.6523 125.55C29.9567 125.113 30.2334 124.717 30.4824 124.363C30.737 124.004 30.9639 123.68 31.1631 123.392C31.3678 123.104 31.5505 122.847 31.7109 122.62C31.8714 122.393 32.0125 122.194 32.1343 122.022C32.256 121.851 32.3612 121.704 32.4497 121.583C32.5382 121.461 32.613 121.358 32.6738 121.275C32.7402 121.187 32.7928 121.118 32.8315 121.068C32.8703 121.018 32.8979 120.979 32.9146 120.952C32.9367 120.924 32.9533 120.905 32.9644 120.894C32.9754 120.882 32.981 120.877 32.981 120.877C33.2853 120.877 33.5592 120.877 33.8027 120.877C34.0462 120.877 34.262 120.877 34.4502 120.877C34.6439 120.877 34.8154 120.877 34.9648 120.877C35.1143 120.877 35.2415 120.877 35.3467 120.877C35.4574 120.877 35.5487 120.877 35.6206 120.877C35.6981 120.877 35.759 120.877 35.8032 120.877C35.853 120.877 35.8918 120.877 35.9194 120.877C35.9471 120.877 35.9665 120.877 35.9775 120.877C35.9886 120.877 35.9941 120.877 35.9941 120.877C35.9997 120.877 36.0024 120.877 36.0024 120.877C35.8254 121.618 35.6621 122.313 35.5127 122.96C35.3633 123.602 35.2222 124.203 35.0894 124.762C34.9565 125.315 34.8348 125.83 34.7241 126.306C34.6134 126.782 34.5111 127.219 34.417 127.617C34.3229 128.016 34.2371 128.378 34.1597 128.705C34.0822 129.031 34.0103 129.33 33.9438 129.601C33.883 129.867 33.8276 130.105 33.7778 130.315C33.728 130.525 33.6838 130.711 33.645 130.871C33.6118 131.032 33.5814 131.173 33.5537 131.294C33.526 131.411 33.5011 131.51 33.479 131.593C33.4624 131.671 33.4458 131.737 33.4292 131.792C33.4181 131.842 33.4098 131.884 33.4043 131.917C33.3988 131.945 33.3932 131.964 33.3877 131.975C33.3877 131.986 33.3849 131.994 33.3794 132ZM34.2842 132L36.5586 122.72C37.029 121.491 37.812 120.877 38.9077 120.877H39.6133L36.9321 132H34.2842ZM37.8867 132L40.0864 122.72C40.5457 121.491 41.3232 120.877 42.4189 120.877H43.1245L47.9058 126.646L49.3418 120.877H51.9897L49.209 132H46.6025L47.084 129.925L42.3608 124.181L40.5347 132H37.8867Z" fill="#42B053"/>
<path d="M55.2104 129.145L56.7129 122.72C57.1445 121.491 57.9331 120.877 59.0786 120.877H67.6118L67.0059 123.45V123.425H64.2583H59.5435C59.4826 123.425 59.4189 123.45 59.3525 123.5C59.2861 123.55 59.2391 123.616 59.2114 123.699L57.958 129.062C57.9414 129.167 57.9663 129.258 58.0327 129.335C58.0991 129.413 58.1849 129.452 58.29 129.452H62.5898C62.6507 129.452 62.7116 129.427 62.7725 129.377C62.8389 129.327 62.8748 129.261 62.8804 129.178L63.229 127.708H58.9541L59.5186 125.168H64.2417H66.5991C66.3556 126.214 66.0402 127.554 65.6528 129.186C65.5809 129.501 65.5034 129.825 65.4204 130.157C64.9888 131.386 64.1974 132 63.0464 132H57.5928C56.818 132 56.1872 131.712 55.7002 131.137C55.2188 130.561 55.0555 129.897 55.2104 129.145ZM68.334 122.678C68.7933 121.477 69.5708 120.877 70.6665 120.877H71.397L69.9443 126.903C69.7839 127.578 69.5819 128.417 69.3384 129.418H73.6299C73.7904 129.418 73.8955 129.338 73.9453 129.178L75.3398 123.425L75.9541 120.877H78.627L76.3525 130.157C76.2142 130.7 75.932 131.142 75.5059 131.485C75.0798 131.828 74.5817 132 74.0117 132H66.0928L68.334 122.678ZM77.0913 132L79.3657 122.72C79.8029 121.491 80.5693 120.877 81.665 120.877H89.7749L87.0771 132H84.4375L85.1846 128.929L86.5293 123.425H82.0469C81.986 123.425 81.9224 123.45 81.856 123.5C81.7951 123.55 81.7536 123.616 81.7314 123.699L81.0757 126.389H85.0352L84.4126 128.937H80.4614L79.7144 132H77.0913ZM95.5107 132L93.3276 128.397H91.5762C91.5817 128.392 91.5845 128.386 91.5845 128.381C91.5845 128.375 91.5845 128.373 91.5845 128.373C91.5845 128.367 91.5845 128.364 91.5845 128.364C91.5845 128.359 91.5845 128.359 91.5845 128.364C91.5845 128.37 91.5817 128.381 91.5762 128.397C91.5762 128.409 91.5734 128.425 91.5679 128.447C91.5623 128.469 91.554 128.5 91.543 128.539C91.5374 128.572 91.5264 128.613 91.5098 128.663C91.4987 128.713 91.4849 128.771 91.4683 128.837C91.4572 128.904 91.4406 128.981 91.4185 129.07C91.4019 129.153 91.3797 129.25 91.3521 129.36C91.3299 129.471 91.3022 129.593 91.269 129.726C91.2414 129.853 91.2082 129.997 91.1694 130.157C91.1307 130.312 91.0892 130.484 91.0449 130.672C91.0062 130.86 90.9619 131.065 90.9121 131.286C90.8623 131.502 90.8097 131.734 90.7544 131.983H87.9902L90.1816 122.711C90.6133 121.488 91.3963 120.877 92.5308 120.877H97.9346C98.7038 120.877 99.3263 121.165 99.8022 121.74C100.284 122.316 100.447 122.98 100.292 123.732C100.292 123.732 100.245 123.94 100.151 124.355C100.062 124.764 99.8991 125.5 99.6611 126.563C99.5283 127.1 99.2433 127.54 98.8062 127.883C98.3745 128.226 97.8737 128.397 97.3037 128.397H96.291L98.4658 132H95.5107ZM97.146 125.583C97.146 125.583 97.2871 124.991 97.5693 123.807C97.5859 123.708 97.561 123.619 97.4946 123.542C97.4282 123.458 97.3452 123.417 97.2456 123.417H92.979C92.9181 123.417 92.8545 123.445 92.7881 123.5C92.7217 123.55 92.6774 123.613 92.6553 123.691C92.6553 123.691 92.5003 124.399 92.1904 125.816H96.814C96.98 125.816 97.0907 125.738 97.146 125.583ZM101.404 122.72C101.891 121.491 102.741 120.877 103.953 120.877C103.958 120.877 103.966 120.877 103.978 120.877C103.989 120.877 104.008 120.877 104.036 120.877C104.069 120.877 104.11 120.877 104.16 120.877C104.215 120.877 104.285 120.877 104.368 120.877C104.451 120.877 104.55 120.877 104.667 120.877C104.788 120.877 104.929 120.877 105.09 120.877C105.256 120.877 105.444 120.877 105.654 120.877C105.87 120.877 106.111 120.877 106.376 120.877C106.648 120.877 106.949 120.877 107.281 120.877C107.613 120.877 107.979 120.877 108.377 120.877C108.781 120.877 109.224 120.877 109.705 120.877C110.524 120.877 111.188 121.165 111.697 121.74C112.212 122.316 112.389 122.98 112.229 123.732C112.229 123.732 112.229 123.735 112.229 123.741C112.229 123.741 112.226 123.749 112.22 123.766C112.215 123.782 112.206 123.807 112.195 123.84C112.19 123.868 112.179 123.912 112.162 123.973C112.151 124.034 112.134 124.111 112.112 124.206C112.09 124.294 112.062 124.405 112.029 124.538C111.996 124.67 111.957 124.828 111.913 125.011C111.869 125.193 111.816 125.404 111.755 125.642C111.7 125.88 111.636 126.148 111.564 126.447C111.493 126.746 111.41 127.08 111.315 127.451C111.227 127.822 111.127 128.234 111.017 128.688C110.911 129.136 110.792 129.626 110.66 130.157C110.222 131.386 109.376 132 108.12 132C108.12 132 108.117 132 108.111 132C108.111 132 108.103 132 108.086 132C108.075 132 108.056 132 108.028 132C108.001 132 107.959 132 107.904 132C107.854 132 107.788 132 107.705 132C107.622 132 107.522 132 107.406 132C107.29 132 107.148 132 106.982 132C106.822 132 106.637 132 106.426 132C106.216 132 105.978 132 105.712 132C105.447 132 105.148 132 104.816 132C104.484 132 104.119 132 103.72 132C103.322 132 102.885 132 102.409 132C101.568 132 100.892 131.712 100.383 131.137C99.8742 130.561 99.6943 129.897 99.8438 129.145C99.8438 129.139 99.8438 129.128 99.8438 129.111C99.8493 129.095 99.8548 129.073 99.8604 129.045C99.8714 129.012 99.8825 128.965 99.8936 128.904C99.9102 128.843 99.9295 128.768 99.9517 128.68C99.9793 128.586 100.007 128.472 100.035 128.339C100.068 128.207 100.107 128.049 100.151 127.866C100.195 127.684 100.245 127.473 100.3 127.235C100.361 126.997 100.428 126.729 100.5 126.43C100.577 126.131 100.66 125.797 100.749 125.426C100.837 125.055 100.937 124.646 101.047 124.197C101.158 123.743 101.277 123.251 101.404 122.72ZM107.63 129.452C107.801 129.452 107.918 129.36 107.979 129.178C107.979 129.172 107.979 129.164 107.979 129.153C107.984 129.142 107.99 129.122 107.995 129.095C108.001 129.067 108.009 129.028 108.02 128.979C108.037 128.929 108.053 128.868 108.07 128.796C108.086 128.718 108.109 128.624 108.136 128.514C108.164 128.397 108.197 128.265 108.236 128.115C108.275 127.966 108.316 127.792 108.36 127.592C108.41 127.393 108.465 127.169 108.526 126.92C108.587 126.665 108.656 126.383 108.734 126.073C108.811 125.763 108.894 125.423 108.983 125.052C109.077 124.676 109.179 124.264 109.29 123.815C109.307 123.71 109.285 123.619 109.224 123.542C109.163 123.464 109.069 123.425 108.941 123.425C108.941 123.425 108.939 123.425 108.933 123.425C108.933 123.425 108.925 123.425 108.908 123.425C108.897 123.425 108.875 123.425 108.842 123.425C108.814 123.425 108.773 123.425 108.717 123.425C108.667 123.425 108.598 123.425 108.51 123.425C108.427 123.425 108.324 123.425 108.203 123.425C108.086 123.425 107.945 123.425 107.779 123.425C107.613 123.425 107.422 123.425 107.207 123.425C106.991 123.425 106.744 123.425 106.468 123.425C106.197 123.425 105.892 123.425 105.555 123.425C105.217 123.425 104.846 123.425 104.442 123.425C104.265 123.425 104.149 123.517 104.094 123.699C104.094 123.699 104.094 123.702 104.094 123.708C104.094 123.708 104.091 123.713 104.085 123.724C104.085 123.735 104.08 123.755 104.069 123.782C104.063 123.81 104.055 123.849 104.044 123.898C104.033 123.948 104.016 124.012 103.994 124.089C103.978 124.161 103.955 124.255 103.928 124.372C103.9 124.482 103.867 124.612 103.828 124.762C103.795 124.911 103.753 125.085 103.704 125.285C103.659 125.484 103.604 125.711 103.538 125.965C103.477 126.214 103.408 126.494 103.33 126.804C103.258 127.114 103.175 127.457 103.081 127.833C102.993 128.204 102.893 128.613 102.782 129.062C102.766 129.167 102.793 129.258 102.865 129.335C102.937 129.413 103.026 129.452 103.131 129.452C103.136 129.452 103.145 129.452 103.156 129.452C103.172 129.452 103.194 129.452 103.222 129.452C103.255 129.452 103.297 129.452 103.347 129.452C103.402 129.452 103.471 129.452 103.554 129.452C103.637 129.452 103.74 129.452 103.861 129.452C103.983 129.452 104.127 129.452 104.293 129.452C104.459 129.452 104.65 129.452 104.866 129.452C105.082 129.452 105.325 129.452 105.596 129.452C105.867 129.452 106.172 129.452 106.509 129.452C106.847 129.452 107.22 129.452 107.63 129.452Z" fill="white"/>
<g clip-path="url(#clip0_113_2)">
<path d="M60.6073 0.033408C69.5487 -0.331723 81.2162 2.29901 92.5359 6.59907C97.4929 8.48279 102.317 10.831 106.895 13.6505C109.041 14.9714 110.061 16.8026 109.997 19.4166C109.936 21.9145 109.887 24.4101 109.714 26.9035C109.64 27.9654 109.36 28.2535 108.423 27.6393C106.568 26.4233 104.67 25.281 102.805 24.0807C94.7421 18.894 85.9966 15.628 76.792 13.3568C65.6445 10.6066 54.467 10.4413 43.2757 12.3351C34.3504 13.8459 25.7685 16.7535 17.6007 20.895C16.2163 21.5974 15.6192 22.5085 15.8835 24.1656C16.166 25.9421 16.3179 27.7577 16.3339 29.5577C16.3479 31.1901 16.9684 30.9992 17.9859 30.4465C20.3772 29.149 22.685 27.6985 25.194 26.6143C35.4813 22.1713 46.1452 19.7036 57.3002 19.7081C68.5472 19.7125 79.347 22.0284 89.722 26.5618C96.1105 29.3533 101.849 33.2704 107.427 37.4845C108.462 38.2661 108.211 39.232 108.001 40.2045C107.077 44.4588 105.77 48.5992 104.537 52.763C103.027 57.8659 100.687 62.5959 98.5146 67.3973C97.4265 69.8036 97.0467 69.7991 95.4044 67.8518C89.2834 60.5971 81.6142 55.8404 72.92 52.7909C71.5355 52.3052 70.9492 51.6676 71.0251 50.0954C71.1482 47.5496 71.0797 44.9925 71.0444 42.4411C71.0294 41.3557 71.3119 40.8298 72.4663 41.1347C79.0346 42.8699 85.2305 45.5173 90.8422 49.5003C93.6604 51.5001 93.6925 51.5705 94.7421 48.1592C95.0845 47.046 95.3894 45.9193 95.7617 44.8184C96.2486 43.3779 95.8655 42.3853 94.5538 41.6639C92.4824 40.5239 90.532 39.1125 88.3943 38.1433C81.5649 35.0447 74.6115 32.3603 67.1253 31.4425C58.3369 30.365 49.5957 30.5637 41.016 32.7735C32.0982 35.0704 23.7731 38.8947 16.4249 44.777C14.4487 46.3582 12.264 47.6612 10.5499 49.5997C9.70792 50.5521 9.56241 49.5137 9.37089 49.0235C8.25282 46.1538 7.64832 43.1367 7.11336 40.104C6.03488 33.9861 5.5042 27.8001 5.03985 21.6018C4.7071 17.17 6.50136 14.1295 10.2643 12.2525C17.4852 8.65028 24.8398 5.47911 32.6139 3.30842C40.7624 1.03166 49.0126 0.142836 60.6073 0.033408Z" fill="#42B053"/>
<path d="M62.8796 45.149C62.8796 46.2656 62.8839 47.3822 62.8796 48.4988C62.87 50.6337 62.8678 50.6583 60.8799 50.5991C56.337 50.464 51.8241 50.6672 47.3358 51.5147C39.917 52.915 33.307 56.1699 27.2245 60.7324C26.1642 61.5274 26.0786 62.2911 26.7056 63.4089C30.0608 69.3861 33.8323 75.0473 38.2457 80.2317C43.59 86.5093 49.7057 91.8467 56.3927 96.4951C57.2315 97.078 57.9088 97.1293 58.7497 96.5197C65.7117 91.4692 72.2617 85.9387 77.7783 79.1586C78.4587 78.3223 78.3624 77.9103 77.5868 77.2671C71.5503 72.2625 64.5765 70.1889 56.9886 70.0214C56.4761 70.0103 55.7208 69.7199 55.5036 70.4111C55.342 70.9281 55.9529 71.3234 56.3263 71.6606C58.1752 73.3277 60.0251 74.997 61.9252 76.5982C62.5875 77.1565 62.8743 77.7573 62.8689 78.6327C62.8486 82.0361 62.8497 85.4396 62.8935 88.8419C62.9096 90.088 62.4688 90.4241 61.4491 89.8055C60.3492 89.1389 59.2141 88.5035 58.2148 87.6929C51.4443 82.1992 45.0087 76.3448 40.0282 68.9517C39.2975 67.8664 38.4276 66.8849 37.6605 65.8252C36.9896 64.8995 36.9522 64.1737 38.1719 63.5964C46.6735 59.5744 55.4897 57.5835 64.7873 59.4784C75.6716 61.696 84.8151 67.039 91.6081 76.4017C92.296 77.3497 92.2137 77.9505 91.5653 78.8951C86.8191 85.8024 81.2908 91.9594 75.1516 97.5079C71.0313 101.232 66.5965 104.554 61.9873 107.595C58.8439 109.67 55.6662 109.345 52.6319 107.289C42.6955 100.557 33.7456 92.645 26.4006 82.8914C22.0503 77.1163 18.1911 70.9962 15.2467 64.2865C14.6967 63.0326 14.028 61.8333 13.3722 60.633C12.8083 59.6001 12.9667 58.8832 13.8183 57.9989C19.7586 51.8352 26.7034 47.2761 34.3801 43.9106C40.0165 41.4407 45.962 40.2348 52.036 39.7111C54.9804 39.4576 57.9291 39.2856 60.8906 39.4386C62.3104 39.5123 63.0711 39.9858 62.8978 41.6406C62.7769 42.7963 62.8743 43.9776 62.8785 45.1478L62.8796 45.149Z" fill="#42B053"/>
</g>
<defs>
<clipPath id="clip0_113_2">
<rect width="105" height="109" fill="white" transform="translate(5)"/>
</clipPath>
</defs>
</svg>
